<svg width="375" height="457" viewBox="0 0 375 457" fill="none" xmlns="http://www.w3.org/2000/svg">
<mask id="mask0" mask-type="alpha" maskUnits="userSpaceOnUse" x="0" y="0" width="375" height="457">
<rect width="375" height="457" rx="30" fill="#C4C4C4"/>
</mask>
<g mask="url(#mask0)">
<g style="mix-blend-mode:color-dodge" opacity="0.2">
<circle cx="7" cy="179" r="59" fill="url(#paint0_linear)"/>
</g>
<path fill-rule="evenodd" clip-rule="evenodd" d="M369.531 285.902C381.528 295.208 383.71 312.478 374.404 324.476L357.683 346.032L409.671 386.358C428.039 400.607 371.868 428.874 375.689 450.082C380.077 474.432 442.055 492.132 425.697 513.221L385.371 565.209L406.928 581.93C418.805 591.143 421.062 608.162 412.076 620.142L411.801 620.504C402.495 632.501 385.225 634.683 373.227 625.377C361.35 616.164 359.093 599.145 368.079 587.165L368.354 586.803L385.076 565.247L333.087 524.921C313.548 509.764 368.412 474.101 365.373 451.386C362.275 428.229 301.611 417.976 317.061 398.058L357.387 346.069L335.83 329.349C323.833 320.042 321.651 302.773 330.957 290.775C340.263 278.778 357.533 276.596 369.531 285.902Z" stroke="url(#paint1_linear)"/>
<path fill-rule="evenodd" clip-rule="evenodd" d="M348.275 287.494C361.344 295.223 365.673 312.083 357.944 325.152L344.057 348.635L400.689 382.127C420.699 393.961 368.513 429.045 374.962 449.607C382.367 473.215 446.075 483.008 432.489 505.981L398.996 562.613L422.479 576.501C435.418 584.152 439.79 600.754 432.377 613.766L432.148 614.159C424.419 627.228 407.559 631.557 394.49 623.828C381.551 616.176 377.179 599.575 384.592 586.563L384.821 586.17L398.708 562.687L342.076 529.195C320.791 516.607 370.753 474.349 364.891 452.193C358.915 429.608 297.444 427.039 310.276 405.341L343.767 348.709L320.285 334.821C307.216 327.092 302.887 310.232 310.616 297.163C318.345 284.094 335.206 279.765 348.275 287.494Z" stroke="url(#paint2_linear)"/>
<path fill-rule="evenodd" clip-rule="evenodd" d="M327.386 291.737C341.321 297.767 347.729 313.952 341.699 327.886L330.864 352.924L391.248 379.054C412.583 388.287 365.206 429.635 374.182 449.227C384.487 471.721 448.92 473.451 438.32 497.946L412.189 558.329L437.228 569.164C451.023 575.134 457.442 591.057 451.718 604.895L451.54 605.314C445.51 619.249 429.325 625.657 415.391 619.627C401.595 613.657 395.177 597.734 400.901 583.896L401.078 583.477L411.913 558.439L351.529 532.309C328.835 522.488 373.106 474.301 364.514 453.055C355.754 431.397 294.445 436.552 304.457 413.417L330.587 353.034L305.549 342.199C291.615 336.169 285.207 319.984 291.237 306.049C297.267 292.115 313.452 285.707 327.386 291.737Z" stroke="url(#paint3_linear)"/>
<path fill-rule="evenodd" clip-rule="evenodd" d="M307.195 298.564C321.776 302.8 330.162 318.054 325.926 332.635L318.315 358.833L381.497 377.189C403.821 383.675 362 430.635 373.361 448.948C386.404 469.972 450.546 463.614 443.099 489.244L424.743 552.426L450.942 560.037C465.377 564.231 473.74 579.223 469.795 593.67L469.672 594.108C465.436 608.689 450.182 617.075 435.601 612.839C421.167 608.645 412.803 593.653 416.748 579.205L416.871 578.768L424.482 552.57L361.3 534.213C337.553 527.314 375.436 473.959 364.249 453.957C352.844 433.567 292.665 446.366 299.697 422.159L318.053 358.977L291.855 351.365C277.275 347.129 268.889 331.875 273.125 317.295C277.361 302.714 292.615 294.328 307.195 298.564Z" stroke="url(#paint4_linear)"/>
<path fill-rule="evenodd" clip-rule="evenodd" d="M288.019 307.868C303.016 310.243 313.247 324.326 310.872 339.323L306.604 366.269L371.589 376.561C394.55 380.198 358.944 432.029 372.51 448.773C388.086 467.997 450.925 453.65 446.75 480.011L436.457 544.996L463.403 549.264C478.25 551.615 488.426 565.441 486.324 580.268L486.256 580.718C483.881 595.715 469.798 605.946 454.801 603.571C439.955 601.22 429.778 587.394 431.881 572.566L431.948 572.117L436.216 545.171L371.231 534.878C346.807 531.01 377.705 473.327 364.098 454.885C350.228 436.086 292.127 456.326 296.071 431.428L306.363 366.444L279.418 362.176C264.421 359.801 254.189 345.718 256.564 330.721C258.94 315.725 273.022 305.493 288.019 307.868Z" stroke="url(#paint5_linear)"/>
<path fill-rule="evenodd" clip-rule="evenodd" d="M270.16 319.503C285.336 319.98 297.252 332.669 296.775 347.845L295.918 375.113L361.68 377.18C384.916 377.91 356.087 433.795 371.645 448.707C389.507 465.827 450.053 443.717 449.214 470.394L447.147 536.156L474.416 537.013C489.44 537.485 501.269 549.927 501.042 564.901L501.031 565.355C500.554 580.531 487.865 592.447 472.689 591.97C457.664 591.498 445.835 579.057 446.063 564.083L446.073 563.628L446.931 536.36L381.168 534.293C356.452 533.517 379.876 472.416 364.065 455.825C347.948 438.912 292.842 466.275 293.634 441.079L295.7 375.317L268.433 374.46C253.257 373.983 241.341 361.294 241.818 346.118C242.295 330.942 254.984 319.026 270.16 319.503Z" stroke="url(#paint6_linear)"/>
<path fill-rule="evenodd" clip-rule="evenodd" d="M253.9 333.284C269.017 331.855 282.429 342.95 283.858 358.067L286.426 385.227L351.928 379.035C375.072 376.848 353.475 435.905 370.779 448.75C390.646 463.496 447.943 433.972 450.455 460.543L456.646 526.046L483.807 523.479C498.772 522.064 512.067 532.925 513.718 547.81L513.764 548.262C515.193 563.378 504.098 576.79 488.981 578.219C474.016 579.634 460.721 568.773 459.07 553.889L459.024 553.436L456.457 526.276L390.954 532.468C366.335 534.795 381.916 471.24 364.151 456.762C346.041 442.002 294.8 476.056 292.427 450.96L286.235 385.457L259.075 388.024C243.959 389.453 230.546 378.357 229.117 363.241C227.689 348.125 238.784 334.712 253.9 333.284Z" stroke="url(#paint7_linear)"/>
<path fill-rule="evenodd" clip-rule="evenodd" d="M239.495 348.994C254.313 345.682 269.01 355.009 272.322 369.827L278.274 396.451L342.484 382.099C365.171 377.027 351.146 438.326 369.924 448.901C391.482 461.041 444.627 424.568 450.449 450.615L464.801 514.826L491.426 508.874C506.096 505.595 520.647 514.704 524.151 529.264L524.254 529.707C527.566 544.525 518.239 559.223 503.421 562.535C488.751 565.814 474.199 556.705 470.696 542.145L470.593 541.702L464.642 515.077L400.432 529.43C376.299 534.824 383.792 469.818 364.352 457.68C344.535 445.307 297.966 485.514 292.467 460.913L278.113 396.703L251.489 402.654C236.671 405.966 221.974 396.639 218.662 381.821C215.35 367.003 224.677 352.306 239.495 348.994Z" stroke="url(#paint8_linear)"/>
<path fill-rule="evenodd" clip-rule="evenodd" d="M227.173 366.385C241.458 361.242 257.209 368.654 262.352 382.94L271.594 408.608L333.499 386.321C355.371 378.447 349.14 441.02 369.095 449.158C392.005 458.5 440.159 415.654 449.2 440.766L471.487 502.671L497.156 493.43C511.299 488.338 526.877 495.551 532.178 509.558L532.335 509.984C537.479 524.27 530.067 540.021 515.781 545.164C501.638 550.256 486.06 543.042 480.759 529.036L480.601 528.61L471.36 502.941L409.455 525.228C386.188 533.605 385.475 468.172 364.667 458.566C343.456 448.774 302.293 494.501 293.754 470.783L271.466 408.878L245.798 418.119C231.512 423.263 215.762 415.851 210.618 401.565C205.475 387.279 212.887 371.529 227.173 366.385Z" stroke="url(#paint9_linear)"/>
<path fill-rule="evenodd" clip-rule="evenodd" d="M217.127 385.184C230.656 378.291 247.211 383.67 254.104 397.199L266.49 421.507L325.113 391.637C345.826 381.083 347.486 443.944 368.304 449.516C392.204 455.914 434.609 407.371 446.726 431.151L476.596 489.775L500.904 477.389C514.297 470.565 530.657 475.769 537.671 489L537.881 489.404C544.774 502.933 539.395 519.488 525.867 526.381C512.473 533.205 496.114 528.001 489.099 514.77L488.89 514.366L476.504 490.058L417.88 519.928C395.847 531.155 386.938 466.328 365.091 459.406C342.819 452.349 307.712 502.875 296.268 480.414L266.397 421.791L242.089 434.176C228.561 441.069 212.006 435.69 205.112 422.162C198.219 408.633 203.598 392.078 217.127 385.184Z" stroke="url(#paint10_linear)"/>
<path fill-rule="evenodd" clip-rule="evenodd" d="M209.516 405.094C222.074 396.56 239.173 399.822 247.707 412.38L263.042 434.944L317.459 397.962C336.687 384.895 346.212 447.052 367.564 449.971C392.077 453.323 428.064 399.848 443.065 421.922L480.047 476.34L502.612 461.005C515.044 452.556 531.927 455.669 540.544 467.917L540.803 468.291C549.337 480.849 546.076 497.948 533.518 506.482C521.085 514.931 504.202 511.819 495.585 499.571L495.326 499.197L479.992 476.632L425.574 513.615C405.122 527.514 388.158 464.315 365.615 460.185C342.635 455.976 314.137 510.503 299.968 489.654L262.986 435.237L240.422 450.571C227.864 459.105 210.765 455.844 202.231 443.286C193.696 430.728 196.958 413.629 209.516 405.094Z" stroke="url(#paint11_linear)"/>
<path fill-rule="evenodd" clip-rule="evenodd" d="M204.463 425.801C215.852 415.76 233.225 416.853 243.266 428.242L261.308 448.706L310.661 405.196C328.099 389.822 345.34 450.295 366.889 450.515C391.629 450.768 420.629 393.204 438.28 413.225L481.79 462.578L502.255 444.536C513.53 434.596 530.67 435.568 540.755 446.639L541.058 446.978C551.099 458.367 550.006 475.74 538.617 485.781C527.341 495.722 510.201 494.75 500.117 483.678L499.814 483.34L481.772 462.875L432.418 506.386C413.869 522.74 389.118 462.164 366.236 460.893C342.909 459.597 321.47 517.266 304.8 498.357L261.288 449.004L240.825 467.045C229.435 477.087 212.062 475.994 202.021 464.604C191.98 453.215 193.073 435.842 204.463 425.801Z" stroke="url(#paint12_linear)"/>
<path fill-rule="evenodd" clip-rule="evenodd" d="M202.043 446.978C212.084 435.588 229.457 434.495 240.846 444.536L261.31 462.578L304.821 413.225C320.195 395.787 344.879 453.622 366.286 451.14C390.863 448.29 412.42 387.545 432.44 405.195L481.793 448.707L499.835 428.242C509.776 416.967 526.902 415.783 538.295 425.503L538.638 425.801C550.028 435.842 551.121 453.215 541.08 464.604C531.139 475.88 514.012 477.064 502.62 467.343L502.276 467.045L481.812 449.004L438.301 498.357C421.948 516.906 389.8 459.911 366.939 461.518C343.634 463.155 329.591 523.057 310.682 506.386L261.329 462.876L243.287 483.34C233.246 494.729 215.873 495.822 204.484 485.781C193.095 475.74 192.002 458.367 202.043 446.978Z" stroke="url(#paint13_linear)"/>
<path fill-rule="evenodd" clip-rule="evenodd" d="M202.297 468.291C210.832 455.733 227.93 452.471 240.488 461.005L263.053 476.34L300.035 421.922C313.101 402.695 344.84 456.981 365.767 451.835C389.793 445.927 403.566 382.96 425.641 397.962L480.058 434.944L495.393 412.38C503.842 399.947 520.685 396.626 533.206 404.842L533.584 405.094C546.142 413.629 549.404 430.728 540.87 443.286C532.421 455.718 515.577 459.039 503.056 450.824L502.678 450.571L480.114 435.236L443.132 489.654C429.233 510.107 390.195 457.59 367.715 462.049C344.799 466.595 338.375 527.784 317.526 513.615L263.108 476.633L247.774 499.197C239.239 511.755 222.14 515.016 209.582 506.482C197.024 497.948 193.763 480.849 202.297 468.291Z" stroke="url(#paint14_linear)"/>
<path fill-rule="evenodd" clip-rule="evenodd" d="M205.219 489.404C212.112 475.875 228.667 470.496 242.196 477.389L266.504 489.775L296.374 431.151C306.928 410.438 345.22 460.318 365.337 452.59C388.433 443.717 394.206 379.52 417.987 391.637L476.61 421.508L488.996 397.199C495.82 383.806 512.114 378.4 525.566 384.981L525.973 385.185C539.502 392.078 544.881 408.633 537.988 422.162C531.163 435.555 514.869 440.961 501.417 434.379L501.011 434.176L476.703 421.79L446.832 480.414C435.606 502.447 390.294 455.237 368.55 462.479C346.384 469.861 347.68 531.373 325.22 519.928L266.596 490.059L254.21 514.366C247.317 527.895 230.762 533.274 217.233 526.381C203.705 519.488 198.326 502.933 205.219 489.404Z" stroke="url(#paint15_linear)"/>
<path fill-rule="evenodd" clip-rule="evenodd" d="M210.766 509.984C215.909 495.698 231.659 488.287 245.945 493.43L271.614 502.671L293.901 440.766C301.776 418.894 346.017 463.581 365.007 453.392C386.809 441.695 384.49 377.281 409.602 386.321L471.507 408.609L480.749 382.94C485.841 368.797 501.329 361.391 515.499 366.235L515.928 366.386C530.214 371.529 537.626 387.279 532.483 401.565C527.391 415.708 511.903 423.114 497.732 418.27L497.303 418.119L471.634 408.878L449.347 470.783C440.971 494.05 390.099 452.891 369.434 462.801C348.369 472.903 357.364 533.767 333.646 525.228L271.741 502.941L262.499 528.61C257.356 542.896 241.606 550.307 227.32 545.164C213.034 540.021 205.622 524.27 210.766 509.984Z" stroke="url(#paint16_linear)"/>
<path fill-rule="evenodd" clip-rule="evenodd" d="M218.847 529.707C222.159 514.889 236.857 505.562 251.674 508.874L278.299 514.825L292.652 450.615C297.723 427.928 347.216 466.718 364.779 454.23C384.943 439.893 374.57 376.276 400.617 382.099L464.827 396.452L470.778 369.827C474.057 355.157 488.495 345.869 503.161 348.898L503.606 348.994C518.424 352.306 527.751 367.003 524.439 381.821C521.16 396.491 506.722 405.779 492.056 402.75L491.611 402.654L464.987 396.703L450.634 460.913C445.24 485.046 389.611 450.588 370.351 463.009C350.718 475.672 367.27 534.929 342.669 529.43L278.459 515.078L272.507 541.702C269.195 556.52 254.498 565.847 239.68 562.535C224.862 559.222 215.535 544.525 218.847 529.707Z" stroke="url(#paint17_linear)"/>
<path fill-rule="evenodd" clip-rule="evenodd" d="M229.338 548.262C230.767 533.146 244.179 522.05 259.295 523.479L286.456 526.046L292.648 460.543C294.836 437.399 348.8 469.68 364.66 455.089C382.868 438.338 364.603 376.523 391.174 379.035L456.677 385.227L459.244 358.067C460.659 343.101 473.819 332.077 488.749 333.244L489.202 333.283C504.318 334.712 515.414 348.125 513.985 363.241C512.57 378.206 499.411 389.231 484.48 388.063L484.027 388.024L456.867 385.456L450.675 450.959C448.348 475.578 388.839 448.364 371.288 463.101C353.396 478.125 377.245 534.84 352.149 532.468L286.646 526.276L284.078 553.436C282.65 568.552 269.237 579.648 254.121 578.219C239.005 576.79 227.909 563.378 229.338 548.262Z" stroke="url(#paint18_linear)"/>
<path fill-rule="evenodd" clip-rule="evenodd" d="M242.071 565.355C241.594 550.179 253.51 537.49 268.686 537.013L295.954 536.156L293.887 470.394C293.157 447.158 350.742 472.421 364.648 455.957C380.613 437.056 354.744 378.018 381.421 377.18L447.183 375.113L446.326 347.845C445.854 332.821 457.528 320.234 472.487 319.521L472.942 319.503C488.118 319.026 500.807 330.942 501.284 346.118C501.756 361.142 490.082 373.729 475.123 374.442L474.669 374.46L447.401 375.317L449.467 441.079C450.244 465.796 387.793 446.254 372.228 463.075C356.36 480.223 387.129 533.502 361.933 534.293L296.171 536.36L297.028 563.628C297.505 578.804 285.589 591.493 270.413 591.97C255.237 592.447 242.547 580.531 242.071 565.355Z" stroke="url(#paint19_linear)"/>
<path fill-rule="evenodd" clip-rule="evenodd" d="M256.845 580.718C254.47 565.721 264.702 551.639 279.699 549.264L306.644 544.996L296.352 480.011C292.715 457.05 353.012 474.896 364.745 456.82C378.215 436.066 345.151 380.736 371.512 376.561L436.497 366.269L432.229 339.323C429.878 324.476 439.882 310.525 454.634 307.943L455.082 307.868C470.079 305.493 484.162 315.725 486.537 330.721C488.888 345.568 478.884 359.519 464.132 362.101L463.684 362.176L436.738 366.443L447.031 431.428C450.899 455.853 386.492 444.292 373.157 462.932C359.564 481.933 396.768 530.935 371.87 534.878L306.885 545.171L311.153 572.117C313.528 587.113 303.297 601.196 288.3 603.571C273.303 605.946 259.221 595.715 256.845 580.718Z" stroke="url(#paint20_linear)"/>
<path fill-rule="evenodd" clip-rule="evenodd" d="M273.429 594.108C269.193 579.527 277.579 564.273 292.16 560.037L318.358 552.426L300.002 489.244C293.516 466.92 355.575 477.068 364.949 457.663C375.712 435.385 335.974 384.635 361.604 377.189L424.787 358.834L417.175 332.635C412.982 318.2 421.159 303.105 435.47 298.694L435.906 298.564C450.487 294.328 465.741 302.714 469.977 317.295C474.17 331.729 465.993 346.824 451.682 351.235L451.246 351.365L425.048 358.976L443.404 422.159C450.303 445.906 384.955 442.509 374.061 462.673C362.957 483.227 406.009 527.18 381.802 534.213L318.619 552.57L326.23 578.768C330.467 593.348 322.081 608.602 307.5 612.839C292.919 617.075 277.665 608.689 273.429 594.108Z" stroke="url(#paint21_linear)"/>
<path fill-rule="evenodd" clip-rule="evenodd" d="M291.559 605.314C285.529 591.379 291.937 575.194 305.872 569.164L330.91 558.329L304.779 497.946C295.547 476.611 358.388 478.901 365.257 458.475C373.142 435.023 327.357 389.654 351.852 379.054L412.236 352.924L401.401 327.886C395.431 314.091 401.652 298.09 415.298 291.921L415.713 291.737C429.648 285.706 445.833 292.114 451.863 306.049C457.833 319.845 451.612 335.845 437.966 342.015L437.55 342.199L412.512 353.034L438.643 413.417C448.464 436.112 383.205 440.933 374.925 462.303C366.484 484.087 414.705 522.297 391.57 532.309L331.187 558.44L342.022 583.477C348.052 597.412 341.644 613.596 327.709 619.627C313.774 625.657 297.589 619.249 291.559 605.314Z" stroke="url(#paint22_linear)"/>
<path fill-rule="evenodd" clip-rule="evenodd" d="M310.953 614.159C303.224 601.09 307.553 584.23 320.622 576.501L344.104 562.613L310.612 505.981C298.778 485.971 361.411 480.367 365.665 459.241C370.55 434.986 319.439 395.713 342.412 382.127L399.045 348.635L385.157 325.152C377.505 312.214 381.672 295.56 394.437 287.728L394.826 287.494C407.895 279.765 424.756 284.094 432.485 297.163C440.136 310.101 435.97 326.755 423.205 334.587L422.816 334.821L399.333 348.709L432.825 405.341C445.413 426.626 381.273 439.588 375.737 461.827C370.093 484.497 422.723 516.363 401.025 529.195L344.393 562.688L358.28 586.17C366.009 599.239 361.68 616.099 348.611 623.828C335.542 631.557 318.682 627.228 310.953 614.159Z" stroke="url(#paint23_linear)"/>
<path fill-rule="evenodd" clip-rule="evenodd" d="M331.3 620.504C321.994 608.506 324.176 591.237 336.173 581.93L357.73 565.209L317.404 513.221C303.156 494.852 364.592 481.443 366.165 459.95C367.971 435.274 312.341 402.717 333.43 386.358L385.419 346.033L368.697 324.476C359.484 312.598 361.53 295.553 373.213 286.184L373.57 285.902C385.568 276.596 402.838 278.778 412.144 290.775C421.357 302.653 419.311 319.698 407.628 329.067L407.271 329.349L385.714 346.069L426.04 398.058C441.196 417.597 379.187 438.496 376.481 461.253C373.723 484.452 429.932 509.47 410.014 524.921L358.026 565.247L374.747 586.803C384.053 598.801 381.871 616.071 369.874 625.377C357.876 634.683 340.606 632.501 331.3 620.504Z" stroke="url(#paint24_linear)"/>
<path fill-rule="evenodd" clip-rule="evenodd" d="M352.284 624.248C341.548 613.512 341.548 596.105 352.284 585.368L371.575 566.077L325.051 519.553C308.613 503.115 367.885 482.111 366.751 460.591C365.45 435.883 306.179 410.555 325.051 391.682L371.576 345.159L352.284 325.867C341.655 315.238 341.549 298.071 351.965 287.311L352.284 286.987C363.021 276.251 380.428 276.251 391.164 286.987C401.793 297.616 401.9 314.783 391.483 325.543L391.164 325.867L371.873 345.158L418.397 391.682C435.883 409.168 376.981 437.673 377.149 460.591C377.321 483.953 436.222 501.728 418.397 519.553L371.874 566.078L391.164 585.368C401.901 596.105 401.901 613.512 391.164 624.248C380.428 634.985 363.021 634.985 352.284 624.248Z" stroke="url(#paint25_linear)"/>
<path fill-rule="evenodd" clip-rule="evenodd" d="M373.571 625.333C361.574 616.027 359.392 598.757 368.698 586.76L385.419 565.203L333.431 524.877C315.063 510.629 371.234 482.362 367.413 461.153C363.025 436.804 301.047 419.103 317.405 398.014L357.731 346.027L336.174 329.305C324.297 320.092 322.04 303.074 331.026 291.093L331.301 290.732C340.608 278.734 357.877 276.553 369.875 285.859C381.752 295.072 384.009 312.09 375.023 324.071L374.748 324.432L358.027 345.989L410.015 386.315C429.554 401.471 374.69 437.134 377.729 459.85C380.827 483.006 441.492 493.259 426.041 513.178L385.716 565.166L407.272 581.887C419.269 591.193 421.451 608.463 412.145 620.46C402.839 632.458 385.569 634.639 373.571 625.333Z" stroke="url(#paint26_linear)"/>
<path fill-rule="evenodd" clip-rule="evenodd" d="M394.825 623.742C381.756 616.013 377.427 599.153 385.156 586.083L399.043 562.601L342.411 529.109C322.402 517.275 374.587 482.191 368.138 461.628C360.733 438.02 297.025 428.228 310.611 405.255L344.104 348.623L320.621 334.735C307.682 327.083 303.31 310.482 310.724 297.47L310.952 297.077C318.681 284.007 335.541 279.678 348.61 287.408C361.549 295.059 365.921 311.661 358.508 324.673L358.279 325.066L344.392 348.548L401.024 382.041C422.309 394.629 372.347 436.887 378.209 459.042C384.185 481.628 445.657 484.197 432.824 505.894L399.333 562.527L422.815 576.414C435.884 584.143 440.213 601.004 432.484 614.073C424.755 627.142 407.894 631.471 394.825 623.742Z" stroke="url(#paint27_linear)"/>
<path fill-rule="evenodd" clip-rule="evenodd" d="M415.713 619.499C401.779 613.469 395.371 597.284 401.401 583.349L412.235 558.311L351.852 532.181C330.517 522.949 377.894 481.601 368.918 462.008C358.613 439.515 294.18 437.784 304.779 413.29L330.91 352.906L305.872 342.071C292.076 336.101 285.658 320.179 291.382 306.34L291.559 305.922C297.589 291.987 313.774 285.579 327.709 291.609C341.504 297.579 347.923 313.501 342.199 327.34L342.022 327.759L331.187 352.796L391.57 378.927C414.265 388.748 369.993 436.934 378.586 458.181C387.345 479.839 448.654 474.683 438.643 497.818L412.513 558.202L437.55 569.037C451.485 575.067 457.893 591.251 451.863 605.186C445.833 619.121 429.648 625.529 415.713 619.499Z" stroke="url(#paint28_linear)"/>
<path fill-rule="evenodd" clip-rule="evenodd" d="M435.905 612.671C421.324 608.435 412.938 593.181 417.174 578.601L424.785 552.402L361.603 534.046C339.279 527.56 381.1 480.6 369.74 462.288C356.696 441.263 292.554 447.622 300.001 421.992L318.357 358.81L292.158 351.198C277.724 347.005 269.36 332.012 273.305 317.565L273.428 317.127C277.664 302.547 292.918 294.161 307.499 298.397C321.934 302.591 330.297 317.583 326.353 332.03L326.229 332.468L318.618 358.666L381.8 377.022C405.547 383.921 367.664 437.277 378.851 457.279C390.256 477.668 450.435 464.869 443.403 489.076L425.047 552.259L451.245 559.87C465.825 564.106 474.211 579.36 469.975 593.941C465.739 608.522 450.485 616.908 435.905 612.671Z" stroke="url(#paint29_linear)"/>
<path fill-rule="evenodd" clip-rule="evenodd" d="M455.083 603.367C440.086 600.992 429.854 586.909 432.229 571.913L436.497 544.967L371.512 534.674C348.552 531.038 384.157 479.206 370.591 462.462C355.016 443.238 292.177 457.586 296.352 431.225L306.645 366.24L279.699 361.972C264.852 359.62 254.675 345.794 256.778 330.967L256.846 330.517C259.221 315.521 273.303 305.289 288.3 307.664C303.147 310.016 313.323 323.842 311.221 338.669L311.153 339.119L306.885 366.065L371.87 376.357C396.294 380.226 365.397 437.908 379.003 456.35C392.874 475.15 450.974 454.909 447.031 479.807L436.739 544.792L463.684 549.06C478.681 551.435 488.912 565.518 486.537 580.514C484.162 595.511 470.079 605.742 455.083 603.367Z" stroke="url(#paint30_linear)"/>
<path fill-rule="evenodd" clip-rule="evenodd" d="M472.942 591.733C457.766 591.256 445.85 578.567 446.327 563.391L447.183 536.123L381.421 534.056C358.186 533.326 387.014 477.441 371.456 462.529C353.594 445.408 293.049 467.518 293.887 440.842L295.954 375.08L268.686 374.223C253.662 373.75 241.832 361.309 242.06 346.335L242.071 345.88C242.548 330.704 255.237 318.788 270.413 319.265C285.437 319.737 297.266 332.179 297.039 347.153L297.028 347.607L296.171 374.876L361.934 376.942C386.65 377.719 363.226 438.819 379.036 455.411C395.153 472.323 450.259 444.96 449.467 470.156L447.401 535.919L474.669 536.776C489.845 537.253 501.761 549.942 501.284 565.118C500.807 580.294 488.118 592.21 472.942 591.733Z" stroke="url(#paint31_linear)"/>
<path fill-rule="evenodd" clip-rule="evenodd" d="M489.202 577.952C474.085 579.381 460.673 568.285 459.244 553.169L456.676 526.008L391.174 532.2C368.03 534.388 389.627 475.33 372.323 462.486C352.456 447.739 295.159 477.264 292.647 450.692L286.456 385.189L259.295 387.757C244.33 389.171 231.035 378.311 229.384 363.426L229.338 362.974C227.909 347.858 239.004 334.445 254.121 333.016C269.086 331.602 282.381 342.462 284.032 357.347L284.078 357.799L286.645 384.96L352.148 378.768C376.767 376.441 361.186 439.995 378.951 454.474C397.061 469.233 448.302 435.18 450.675 460.276L456.867 525.779L484.027 523.211C499.143 521.783 512.556 532.878 513.985 547.994C515.413 563.111 504.318 576.523 489.202 577.952Z" stroke="url(#paint32_linear)"/>
<path fill-rule="evenodd" clip-rule="evenodd" d="M503.606 562.242C488.788 565.554 474.091 556.227 470.778 541.409L464.827 514.784L400.617 529.137C377.93 534.208 391.955 472.909 373.177 462.335C351.619 450.194 298.474 486.667 292.652 460.62L278.299 396.41L251.674 402.361C237.005 405.64 222.453 396.531 218.95 381.971L218.847 381.528C215.535 366.71 224.862 352.013 239.68 348.701C254.35 345.422 268.901 354.531 272.405 369.091L272.507 369.534L278.458 396.158L342.669 381.806C366.802 376.411 359.309 441.418 378.749 453.555C398.565 465.929 445.135 425.721 450.634 450.322L464.987 514.533L491.611 508.581C506.429 505.269 521.127 514.596 524.439 529.414C527.751 544.232 518.424 558.93 503.606 562.242Z" stroke="url(#paint33_linear)"/>
<path fill-rule="evenodd" clip-rule="evenodd" d="M515.929 544.85C501.643 549.993 485.893 542.582 480.749 528.296L471.508 502.627L409.603 524.914C387.73 532.789 393.962 470.216 374.007 462.078C351.097 452.735 302.943 495.581 293.902 470.469L271.615 408.564L245.946 417.806C231.803 422.897 216.224 415.684 210.924 401.678L210.766 401.251C205.623 386.965 213.035 371.215 227.32 366.072C241.464 360.98 257.042 368.193 262.343 382.199L262.5 382.626L271.741 408.295L333.647 386.007C356.913 377.631 357.627 443.064 378.434 452.669C399.646 462.462 440.809 416.734 449.348 440.452L471.635 502.357L497.304 493.116C511.59 487.973 527.34 495.384 532.483 509.67C537.627 523.956 530.215 539.707 515.929 544.85Z" stroke="url(#paint34_linear)"/>
<path fill-rule="evenodd" clip-rule="evenodd" d="M525.973 526.051C512.445 532.944 495.889 527.565 488.996 514.036L476.61 489.728L417.987 519.598C397.274 530.152 395.614 467.291 374.796 461.719C350.896 455.321 308.491 503.865 296.374 480.084L266.504 421.46L242.196 433.846C228.803 440.67 212.443 435.467 205.429 422.235L205.219 421.832C198.326 408.303 203.705 391.748 217.234 384.855C230.627 378.03 246.987 383.234 254.001 396.466L254.211 396.869L266.596 421.177L325.22 391.307C347.253 380.08 356.162 444.908 378.009 451.83C400.281 458.886 435.388 408.361 446.832 430.821L476.703 489.445L501.011 477.059C514.539 470.166 531.095 475.545 537.988 489.074C544.881 502.603 539.502 519.158 525.973 526.051Z" stroke="url(#paint35_linear)"/>
<path fill-rule="evenodd" clip-rule="evenodd" d="M533.584 506.141C521.026 514.676 503.927 511.414 495.393 498.856L480.058 476.292L425.641 513.274C406.414 526.341 396.888 464.183 375.536 461.264C351.023 457.912 315.036 511.388 300.035 489.313L263.053 434.895L240.488 450.23C228.056 458.679 211.173 455.567 202.556 443.319L202.297 442.945C193.763 430.387 197.024 413.288 209.582 404.753C222.015 396.304 238.898 399.417 247.515 411.665L247.774 412.039L263.108 434.603L317.526 397.621C337.978 383.721 354.942 446.921 377.485 451.05C400.465 455.259 428.963 400.732 443.132 421.581L480.115 475.999L502.678 460.664C515.236 452.13 532.335 455.392 540.87 467.95C549.404 480.508 546.142 497.607 533.584 506.141Z" stroke="url(#paint36_linear)"/>
<path fill-rule="evenodd" clip-rule="evenodd" d="M538.639 485.435C527.25 495.476 509.877 494.383 499.836 482.993L481.794 462.529L432.441 506.04C415.003 521.414 397.762 460.94 376.213 460.72C351.472 460.467 322.472 518.031 304.822 498.011L261.311 448.657L240.847 466.699C229.571 476.64 212.431 475.668 202.347 464.596L202.044 464.258C192.002 452.869 193.095 435.496 204.485 425.455C215.76 415.514 232.9 416.486 242.985 427.557L243.288 427.896L261.33 448.36L310.683 404.849C329.232 388.496 353.983 449.071 376.866 450.343C400.192 451.639 421.631 393.969 438.302 412.878L481.813 462.232L502.277 444.19C513.666 434.149 531.039 435.242 541.08 446.631C551.121 458.021 550.028 475.394 538.639 485.435Z" stroke="url(#paint37_linear)"/>
<path fill-rule="evenodd" clip-rule="evenodd" d="M541.057 464.258C531.016 475.647 513.643 476.74 502.254 466.699L481.79 448.658L438.279 498.011C422.905 515.449 398.221 457.613 376.814 460.096C352.237 462.945 330.68 523.69 310.66 506.04L261.307 462.529L243.265 482.993C233.324 494.269 216.198 495.453 204.805 485.733L204.462 485.435C193.072 475.394 191.979 458.021 202.021 446.631C211.961 435.356 229.088 434.172 240.48 443.892L240.824 444.19L261.288 462.232L304.799 412.878C321.152 394.329 353.3 451.325 376.161 449.718C399.466 448.08 413.509 388.179 432.418 404.849L481.771 448.36L499.813 427.896C509.854 416.507 527.227 415.414 538.616 425.455C550.005 435.496 551.098 452.868 541.057 464.258Z" stroke="url(#paint38_linear)"/>
<path fill-rule="evenodd" clip-rule="evenodd" d="M540.805 442.945C532.271 455.503 515.172 458.765 502.614 450.23L480.049 434.896L443.067 489.313C430.001 508.54 398.262 454.255 377.335 459.4C353.309 465.308 339.536 528.276 317.461 513.274L263.044 476.291L247.709 498.856C239.26 511.288 222.417 514.609 209.896 506.394L209.518 506.141C196.96 497.607 193.698 480.508 202.232 467.95C210.682 455.517 227.525 452.196 240.046 460.412L240.424 460.665L262.988 475.999L299.97 421.581C313.87 401.129 352.907 453.646 375.387 449.186C398.303 444.641 404.727 383.452 425.576 397.621L479.994 434.603L495.328 412.039C503.863 399.481 520.962 396.219 533.52 404.753C546.078 413.288 549.339 430.387 540.805 442.945Z" stroke="url(#paint39_linear)"/>
<path fill-rule="evenodd" clip-rule="evenodd" d="M537.881 421.832C530.988 435.36 514.433 440.739 500.904 433.846L476.596 421.461L446.726 480.084C436.172 500.797 397.88 450.918 377.763 458.646C354.667 467.518 348.894 531.715 325.113 519.599L266.49 489.728L254.104 514.036C247.28 527.43 230.986 532.836 217.534 526.254L217.127 526.051C203.598 519.158 198.219 502.603 205.112 489.074C211.937 475.681 228.231 470.275 241.683 476.856L242.09 477.059L266.398 489.445L296.268 430.821C307.494 408.788 352.806 455.998 374.55 448.756C396.716 441.374 395.42 379.863 417.88 391.307L476.504 421.177L488.89 396.869C495.783 383.341 512.338 377.961 525.867 384.855C539.395 391.748 544.774 408.303 537.881 421.832Z" stroke="url(#paint40_linear)"/>
<path fill-rule="evenodd" clip-rule="evenodd" d="M532.335 401.251C527.191 415.537 511.441 422.949 497.155 417.805L471.486 408.564L449.199 470.469C441.324 492.342 397.083 447.655 378.093 457.843C356.291 469.54 358.61 533.955 333.498 524.914L271.593 502.626L262.351 528.296C257.26 542.439 241.772 549.844 227.601 545L227.172 544.85C212.886 539.707 205.474 523.956 210.617 509.67C215.709 495.527 231.197 488.122 245.368 492.965L245.797 493.116L271.466 502.357L293.753 440.452C302.13 417.186 353.001 458.344 373.666 448.435C394.731 438.333 385.736 377.468 409.454 386.007L471.359 408.294L480.601 382.626C485.744 368.34 501.494 360.928 515.78 366.072C530.066 371.215 537.478 386.965 532.335 401.251Z" stroke="url(#paint41_linear)"/>
<path fill-rule="evenodd" clip-rule="evenodd" d="M524.254 381.528C520.941 396.346 506.244 405.673 491.426 402.361L464.802 396.41L450.449 460.62C445.378 483.307 395.884 444.517 378.321 457.006C358.157 471.343 368.531 534.959 342.484 529.137L278.274 514.784L272.322 541.409C269.043 556.079 254.605 565.367 239.939 562.337L239.495 562.242C224.677 558.93 215.35 544.232 218.662 529.414C221.941 514.745 236.379 505.456 251.045 508.486L251.489 508.581L278.114 514.533L292.467 450.322C297.861 426.189 353.49 460.648 372.75 448.226C392.383 435.564 375.831 376.307 400.432 381.806L464.642 396.158L470.593 369.534C473.905 354.716 488.603 345.389 503.421 348.701C518.239 352.013 527.566 366.71 524.254 381.528Z" stroke="url(#paint42_linear)"/>
<path fill-rule="evenodd" clip-rule="evenodd" d="M513.764 362.974C512.335 378.09 498.923 389.186 483.807 387.757L456.646 385.19L450.454 450.692C448.266 473.836 394.302 441.555 378.442 456.146C360.234 472.898 378.499 534.712 351.928 532.2L286.425 526.008L283.858 553.169C282.443 568.134 269.283 579.159 254.353 577.991L253.9 577.952C238.784 576.523 227.688 563.111 229.117 547.994C230.532 533.029 243.691 522.005 258.622 523.172L259.075 523.211L286.235 525.779L292.427 460.276C294.754 435.657 354.263 462.872 371.814 448.134C389.706 433.111 365.857 376.396 390.953 378.768L456.456 384.959L459.024 357.799C460.452 342.683 473.865 331.587 488.981 333.016C504.097 334.445 515.193 347.858 513.764 362.974Z" stroke="url(#paint43_linear)"/>
<path fill-rule="evenodd" clip-rule="evenodd" d="M501.03 345.88C501.507 361.056 489.591 373.746 474.415 374.223L447.147 375.08L449.213 440.842C449.944 464.077 392.359 438.815 378.453 455.278C362.488 474.18 388.356 533.218 361.68 534.056L295.917 536.122L296.774 563.391C297.246 578.415 285.572 591.002 270.613 591.715L270.159 591.733C254.983 592.21 242.294 580.294 241.817 565.118C241.345 550.093 253.019 537.506 267.978 536.793L268.432 536.776L295.7 535.919L293.633 470.156C292.857 445.44 355.307 464.981 370.873 448.16C386.74 431.013 355.971 377.734 381.167 376.942L446.93 374.875L446.073 347.607C445.596 332.431 457.512 319.742 472.688 319.265C487.864 318.788 500.553 330.704 501.03 345.88Z" stroke="url(#paint44_linear)"/>
<path fill-rule="evenodd" clip-rule="evenodd" d="M486.256 330.517C488.631 345.514 478.4 359.597 463.403 361.972L436.457 366.24L446.75 431.225C450.387 454.185 390.089 436.339 378.357 454.416C364.887 475.169 397.95 530.499 371.589 534.674L306.604 544.967L310.872 571.913C313.224 586.759 303.219 600.71 288.468 603.293L288.019 603.367C273.022 605.742 258.94 595.511 256.565 580.514C254.213 565.668 264.218 551.717 278.969 549.134L279.418 549.06L306.363 544.792L296.071 479.807C292.202 455.383 356.61 466.943 369.944 448.304C383.538 429.303 346.334 380.301 371.231 376.357L436.216 366.064L431.949 339.119C429.573 324.122 439.805 310.04 454.802 307.664C469.798 305.289 483.881 315.521 486.256 330.517Z" stroke="url(#paint45_linear)"/>
<path fill-rule="evenodd" clip-rule="evenodd" d="M469.673 317.127C473.909 331.708 465.523 346.962 450.942 351.198L424.744 358.81L443.1 421.992C449.586 444.316 387.527 434.168 378.153 453.572C367.39 475.85 407.128 526.6 381.498 534.046L318.315 552.402L325.927 578.601C330.12 593.036 321.943 608.13 307.632 612.541L307.196 612.671C292.615 616.908 277.361 608.522 273.125 593.941C268.932 579.506 277.109 564.411 291.42 560.001L291.856 559.87L318.054 552.259L299.698 489.076C292.799 465.33 358.148 468.726 369.041 448.563C380.145 428.008 337.093 384.055 361.301 377.022L424.483 358.666L416.872 332.468C412.635 317.887 421.021 302.633 435.602 298.397C450.183 294.161 465.437 302.547 469.673 317.127Z" stroke="url(#paint46_linear)"/>
<path fill-rule="evenodd" clip-rule="evenodd" d="M451.541 305.922C457.571 319.856 451.163 336.041 437.228 342.071L412.19 352.906L438.321 413.29C447.553 434.625 384.712 432.334 377.843 452.761C369.958 476.212 415.743 521.581 391.248 532.181L330.864 558.311L341.699 583.349C347.669 597.145 341.448 613.145 327.803 619.315L327.387 619.499C313.452 625.529 297.267 619.121 291.237 605.186C285.267 591.391 291.488 575.39 305.134 569.221L305.55 569.037L330.588 558.202L304.457 497.818C294.636 475.123 359.895 470.303 368.176 448.933C376.616 427.149 328.395 388.938 351.53 378.927L411.913 352.796L401.078 327.759C395.048 313.824 401.456 297.639 415.391 291.609C429.326 285.579 445.511 291.987 451.541 305.922Z" stroke="url(#paint47_linear)"/>
<path fill-rule="evenodd" clip-rule="evenodd" d="M432.149 297.076C439.878 310.146 435.549 327.006 422.48 334.735L398.997 348.623L432.49 405.255C444.323 425.264 381.691 430.868 377.436 451.995C372.552 476.249 423.662 515.522 400.689 529.109L344.057 562.6L357.944 586.083C365.596 599.022 361.43 615.676 348.665 623.507L348.275 623.742C335.206 631.471 318.346 627.142 310.617 614.073C302.965 601.134 307.131 584.48 319.896 576.649L320.286 576.414L343.768 562.527L310.276 505.894C297.688 484.609 361.828 471.648 367.365 449.409C373.009 426.738 320.379 394.873 342.076 382.041L398.708 348.548L384.821 325.066C377.092 311.997 381.421 295.136 394.49 287.407C407.559 279.678 424.42 284.007 432.149 297.076Z" stroke="url(#paint48_linear)"/>
<path fill-rule="evenodd" clip-rule="evenodd" d="M411.8 290.732C421.106 302.729 418.924 319.999 406.927 329.305L385.37 346.026L425.696 398.014C439.945 416.383 378.508 429.793 376.935 451.286C375.129 475.961 430.759 508.519 409.67 524.877L357.681 565.203L374.403 586.76C383.616 598.637 381.57 615.682 369.887 625.052L369.53 625.333C357.532 634.639 340.263 632.458 330.956 620.46C321.743 608.583 323.789 591.538 335.472 582.169L335.829 581.887L357.386 565.166L317.06 513.178C301.904 493.638 363.913 472.74 366.619 449.982C369.377 426.783 313.168 401.765 333.086 386.315L385.074 345.989L368.353 324.432C359.047 312.435 361.229 295.165 373.226 285.859C385.224 276.553 402.494 278.734 411.8 290.732Z" stroke="url(#paint49_linear)"/>
<path fill-rule="evenodd" clip-rule="evenodd" d="M390.817 286.987C401.554 297.724 401.554 315.131 390.817 325.867L371.526 345.158L418.05 391.682C434.488 408.12 375.217 429.124 376.35 450.645C377.651 475.352 436.923 500.681 418.05 519.553L371.526 566.077L390.817 585.368C401.446 595.997 401.553 613.164 391.136 623.924L390.817 624.248C380.081 634.985 362.674 634.985 351.937 624.248C341.308 613.619 341.202 596.452 351.618 585.692L351.937 585.368L371.228 566.077L324.704 519.553C307.219 502.068 366.12 473.562 365.952 450.645C365.781 427.283 306.879 409.507 324.704 391.682L371.228 345.158L351.937 325.867C341.201 315.131 341.201 297.724 351.937 286.987C362.674 276.251 380.081 276.251 390.817 286.987Z" stroke="url(#paint50_linear)"/>
<path fill-rule="evenodd" clip-rule="evenodd" d="M186.201 -104.479C192.691 -99.4451 193.872 -90.1027 188.837 -83.6126L179.792 -71.9512L207.915 -50.1364C217.852 -42.4286 187.466 -27.1373 189.533 -15.6642C191.906 -2.49194 225.434 7.08314 216.585 18.4915L194.77 46.6149L206.432 55.6605C212.857 60.6444 214.078 69.8507 209.217 76.3317L209.068 76.5272C204.033 83.0174 194.691 84.1976 188.201 79.1633C181.776 74.1794 180.555 64.9731 185.416 58.4922L185.565 58.2966L194.61 46.6353L166.487 24.8204C155.917 16.6214 185.596 -2.67092 183.952 -14.9592C182.276 -27.4858 149.459 -33.0324 157.817 -43.8075L179.632 -71.9312L167.971 -80.9765C161.48 -86.0108 160.3 -95.3531 165.334 -101.843C170.369 -108.333 179.711 -109.514 186.201 -104.479Z" stroke="url(#paint51_linear)"/>
<path fill-rule="evenodd" clip-rule="evenodd" d="M174.702 -103.618C181.772 -99.4373 184.114 -90.3166 179.933 -83.2467L172.42 -70.5435L203.056 -52.4255C213.881 -46.024 185.65 -27.0448 189.139 -15.9212C193.145 -3.15032 227.609 2.14709 220.259 14.5746L202.141 45.2104L214.844 52.7231C221.843 56.8624 224.208 65.8431 220.198 72.8822L220.075 73.0949C215.893 80.1648 206.773 82.5066 199.703 78.3255C192.704 74.1862 190.338 65.2055 194.349 58.1664L194.472 57.9537L201.985 45.2507L171.349 27.1326C159.835 20.323 186.862 -2.53701 183.691 -14.5223C180.458 -26.7401 147.205 -28.1299 154.146 -39.8676L172.264 -70.5036L159.561 -78.0161C152.491 -82.1972 150.149 -91.318 154.331 -98.3879C158.512 -105.458 167.632 -107.8 174.702 -103.618Z" stroke="url(#paint52_linear)"/>
<path fill-rule="evenodd" clip-rule="evenodd" d="M163.403 -101.323C170.941 -98.0611 174.408 -89.3058 171.146 -81.7676L165.285 -68.223L197.95 -54.0876C209.491 -49.0931 183.862 -26.7254 188.718 -16.1268C194.292 -3.9587 229.148 -3.0225 223.414 10.2281L209.279 42.8932L222.823 48.7545C230.286 51.984 233.758 60.5974 230.662 68.0836L230.566 68.3101C227.304 75.8483 218.548 79.3148 211.01 76.0527C203.547 72.8233 200.075 64.2099 203.172 56.7236L203.268 56.4971L209.129 42.9527L176.464 28.8172C164.187 23.5044 188.136 -2.56278 183.488 -14.0561C178.749 -25.7724 145.584 -22.9835 150.999 -35.4986L165.135 -68.1638L151.59 -74.025C144.052 -77.287 140.586 -86.0424 143.848 -93.5805C147.11 -101.119 155.865 -104.585 163.403 -101.323Z" stroke="url(#paint53_linear)"/>
<path fill-rule="evenodd" clip-rule="evenodd" d="M152.48 -97.6298C160.368 -95.3383 164.904 -87.0864 162.613 -79.1988L158.495 -65.0265L192.674 -55.0965C204.751 -51.588 182.127 -26.1845 188.273 -16.278C195.329 -4.90455 230.027 -8.34433 225.999 5.5205L216.069 39.6997L230.241 43.8172C238.05 46.0858 242.574 54.1961 240.44 62.0114L240.374 62.2481C238.082 70.1357 229.83 74.6722 221.943 72.3806C214.134 70.112 209.61 62.0017 211.744 54.1864L211.81 53.9497L215.928 39.7774L181.748 29.8474C168.902 26.1153 189.396 -2.74804 183.344 -13.5682C177.174 -24.5982 144.619 -17.6744 148.424 -30.7697L158.354 -64.949L144.182 -69.0663C136.294 -71.3579 131.758 -79.6097 134.049 -87.4973C136.341 -95.3849 144.592 -99.9214 152.48 -97.6298Z" stroke="url(#paint54_linear)"/>
<path fill-rule="evenodd" clip-rule="evenodd" d="M142.107 -92.5966C150.22 -91.3117 155.754 -83.6935 154.47 -75.5809L152.161 -61.0043L187.315 -55.4364C199.736 -53.4692 180.475 -25.4304 187.814 -16.3724C196.239 -5.9729 230.233 -13.7344 227.974 0.525951L222.406 35.6802L236.983 37.9889C245.014 39.261 250.519 46.7403 249.382 54.7614L249.346 55.0046C248.061 63.1172 240.442 68.6522 232.33 67.3673C224.298 66.0952 218.793 58.6159 219.931 50.5948L219.967 50.3516L222.276 35.775L187.122 30.2071C173.909 28.1144 190.623 -3.08979 183.263 -13.0661C175.76 -23.2359 144.329 -12.2865 146.463 -25.7553L152.03 -60.9096L137.454 -63.2183C129.341 -64.5032 123.806 -72.1214 125.091 -80.234C126.376 -88.3466 133.994 -93.8815 142.107 -92.5966Z" stroke="url(#paint55_linear)"/>
<path fill-rule="evenodd" clip-rule="evenodd" d="M132.446 -86.3028C140.655 -86.0448 147.102 -79.1804 146.844 -70.9708L146.38 -56.2197L181.955 -55.1018C194.524 -54.7067 178.929 -24.475 187.345 -16.4082C197.008 -7.14673 229.761 -19.1076 229.307 -4.67657L228.189 30.8984L242.94 31.3619C251.068 31.6173 257.467 38.3477 257.344 46.4481L257.338 46.694C257.08 54.9037 250.216 61.3498 242.006 61.0918C233.879 60.8363 227.479 54.106 227.603 46.0056L227.608 45.7597L228.072 31.0087L192.497 29.8907C179.126 29.4705 191.798 -3.5825 183.245 -12.5576C174.526 -21.7068 144.716 -6.90456 145.145 -20.5345L146.262 -56.1094L131.512 -56.573C123.302 -56.831 116.856 -63.6954 117.114 -71.9051C117.372 -80.1147 124.236 -86.5608 132.446 -86.3028Z" stroke="url(#paint56_linear)"/>
<path fill-rule="evenodd" clip-rule="evenodd" d="M123.649 -78.8478C131.827 -79.6208 139.082 -73.6185 139.855 -65.4412L141.244 -50.7484L176.679 -54.0979C189.199 -55.2814 177.515 -23.3335 186.876 -16.3851C197.623 -8.4077 228.619 -24.3792 229.978 -10.0052L233.327 25.4294L248.02 24.0404C256.115 23.2752 263.308 29.1505 264.201 37.2024L264.226 37.4471C264.999 45.6244 258.996 52.88 250.819 53.653C242.724 54.4182 235.532 48.543 234.638 40.491L234.613 40.2463L233.225 25.5535L197.79 28.903C184.472 30.162 192.901 -4.21857 183.291 -12.051C173.494 -20.0353 145.774 -1.61354 144.491 -15.1897L141.141 -50.6242L126.449 -49.2353C118.271 -48.4623 111.016 -54.4647 110.243 -62.642C109.47 -70.8193 115.472 -78.0749 123.649 -78.8478Z" stroke="url(#paint57_linear)"/>
<path fill-rule="evenodd" clip-rule="evenodd" d="M115.856 -70.3492C123.872 -72.141 131.823 -67.0953 133.615 -59.0794L136.834 -44.6766L171.569 -52.4408C183.842 -55.1841 176.255 -22.0238 186.413 -16.3034C198.076 -9.73594 226.825 -29.4663 229.974 -15.3759L237.738 19.3595L252.142 16.14C260.077 14.3661 267.949 19.2937 269.844 27.1702L269.9 27.4098C271.692 35.4257 266.646 43.3764 258.63 45.1682C250.694 46.942 242.823 42.0145 240.927 34.1379L240.872 33.8984L237.652 19.4955L202.917 27.2597C189.862 30.1779 193.915 -4.98796 183.399 -11.5541C172.679 -18.2476 147.487 3.50308 144.512 -9.80518L136.748 -44.5404L122.345 -41.3211C114.329 -39.5293 106.378 -44.5749 104.587 -52.5909C102.795 -60.6068 107.84 -68.5575 115.856 -70.3492Z" stroke="url(#paint58_linear)"/>
<path fill-rule="evenodd" clip-rule="evenodd" d="M109.191 -60.941C116.919 -63.7233 125.44 -59.7139 128.222 -51.9858L133.221 -38.1L166.709 -50.1565C178.542 -54.4164 175.171 -20.5666 185.965 -16.1645C198.359 -11.1105 224.409 -34.2885 229.299 -20.7039L241.356 12.7844L255.242 7.78514C262.892 5.03066 271.32 8.93272 274.187 16.5096L274.272 16.7404C277.055 24.4685 273.045 32.9889 265.317 35.7712C257.666 38.5257 249.239 34.6236 246.372 27.0467L246.286 26.816L241.287 12.9301L207.799 24.9867C195.213 29.518 194.827 -5.87854 183.57 -11.0749C172.096 -16.372 149.828 8.3646 145.209 -4.46589L133.152 -37.9541L119.267 -32.955C111.539 -30.1727 103.018 -34.1821 100.236 -41.9102C97.4536 -49.6383 101.463 -58.1587 109.191 -60.941Z" stroke="url(#paint59_linear)"/>
<path fill-rule="evenodd" clip-rule="evenodd" d="M103.757 -50.7714C111.075 -54.5004 120.031 -51.5905 123.76 -44.272L130.46 -31.1223L162.173 -47.2809C173.378 -52.9902 174.276 -18.9849 185.538 -15.9704C198.467 -12.5095 221.406 -38.7697 227.961 -25.9052L244.119 5.80806L257.269 -0.892193C264.515 -4.58386 273.365 -1.76879 277.159 5.389L277.272 5.60722C281.001 12.9257 278.092 21.8814 270.773 25.6104C263.528 29.302 254.678 26.487 250.883 19.3292L250.77 19.111L244.07 5.96118L212.357 22.1199C200.437 28.193 195.618 -6.87612 183.799 -10.6207C171.752 -14.4379 152.76 12.8945 146.569 0.744128L130.41 -30.9689L117.26 -24.2689C109.942 -20.5399 100.986 -23.4498 97.2573 -30.7683C93.5284 -38.0868 96.4383 -47.0425 103.757 -50.7714Z" stroke="url(#paint60_linear)"/>
<path fill-rule="evenodd" clip-rule="evenodd" d="M99.6393 -40.0012C106.433 -44.618 115.683 -42.8535 120.299 -36.0601L128.595 -23.8538L158.033 -43.8597C168.434 -50.9283 173.587 -17.3037 185.137 -15.7244C198.398 -13.9113 217.865 -42.8394 225.981 -30.8979L245.986 -1.45993L258.193 -9.75547C264.918 -14.3261 274.051 -12.6424 278.713 -6.01665L278.853 -5.81436C283.47 0.97905 281.705 10.2289 274.912 14.8457C268.186 19.4163 259.053 17.7326 254.392 11.1068L254.252 10.9045L245.957 -1.30181L216.519 18.7042C205.455 26.2233 196.278 -7.96527 184.083 -10.1991C171.652 -12.4762 156.235 17.021 148.571 5.74239L128.564 -23.6953L116.358 -15.4001C109.565 -10.7833 100.315 -12.5478 95.6982 -19.3412C91.0814 -26.1346 92.8459 -35.3844 99.6393 -40.0012Z" stroke="url(#paint61_linear)"/>
<path fill-rule="evenodd" clip-rule="evenodd" d="M96.9059 -28.7997C103.067 -34.2315 112.465 -33.6402 117.897 -27.479L127.657 -16.4087L154.355 -39.9464C163.788 -48.2629 173.115 -15.5492 184.772 -15.43C198.156 -15.2933 213.844 -46.4331 223.392 -35.603L246.93 -8.90447L258 -18.6645C264.1 -24.042 273.372 -23.5163 278.827 -17.527L278.991 -17.3438C284.423 -11.1826 283.832 -1.78461 277.67 3.64722C271.571 9.02473 262.299 8.499 256.844 2.50974L256.679 2.32657L246.92 -8.74385L220.221 14.7939C210.187 23.6404 196.798 -9.1284 184.419 -9.81616C171.8 -10.5173 160.203 20.6795 151.184 10.4505L127.647 -16.2476L116.576 -6.48796C110.415 -1.05613 101.017 -1.6474 95.5853 -7.80861C90.1534 -13.9698 90.7447 -23.3678 96.9059 -28.7997Z" stroke="url(#paint62_linear)"/>
<path fill-rule="evenodd" clip-rule="evenodd" d="M95.597 -17.3438C101.029 -23.505 110.427 -24.0963 116.588 -18.6645L127.658 -8.9047L151.196 -35.6029C159.513 -45.0361 172.866 -13.7494 184.446 -15.0922C197.741 -16.6339 209.403 -49.4945 220.233 -39.9464L246.931 -16.4085L256.691 -27.479C262.069 -33.5786 271.333 -34.2191 277.496 -28.9608L277.682 -28.7997C283.843 -23.3678 284.435 -13.9698 279.003 -7.8086C273.625 -1.70901 264.361 -1.0685 258.198 -6.32681L258.012 -6.48795L246.941 -16.2479L223.404 10.4505C214.557 20.4849 197.166 -10.3474 184.799 -9.47831C172.192 -8.59233 164.596 23.812 154.367 14.7939L127.668 -8.74359L117.909 2.32658C112.477 8.48779 103.079 9.07906 96.9176 3.64723C90.7564 -1.7846 90.1651 -11.1826 95.597 -17.3438Z" stroke="url(#paint63_linear)"/>
<path fill-rule="evenodd" clip-rule="evenodd" d="M95.7342 -5.81419C100.351 -12.6076 109.601 -14.3721 116.394 -9.75529L128.601 -1.45998L148.606 -30.8977C155.675 -41.2989 172.844 -11.9324 184.165 -14.7161C197.162 -17.9119 204.613 -51.975 216.555 -43.8595L245.992 -23.8534L254.288 -36.0599C258.858 -42.7854 267.97 -44.582 274.743 -40.1376L274.948 -40.001C281.741 -35.3842 283.506 -26.1344 278.889 -19.341C274.318 -12.6155 265.207 -10.8189 258.433 -15.2633L258.229 -15.3999L246.023 -23.6954L226.017 5.74256C218.498 16.8066 197.38 -11.603 185.219 -9.1907C172.822 -6.73162 169.347 26.3693 158.069 18.7044L128.631 -1.30138L120.335 10.9047C115.719 17.6981 106.469 19.4626 99.6753 14.8458C92.8819 10.229 91.1174 0.979226 95.7342 -5.81419Z" stroke="url(#paint64_linear)"/>
<path fill-rule="evenodd" clip-rule="evenodd" d="M97.315 5.60721C101.044 -1.71127 110 -4.62116 117.318 -0.892209L130.468 5.80783L146.627 -25.9052C152.336 -37.1103 173.05 -10.1272 183.933 -14.3078C196.427 -19.1074 199.55 -53.8357 212.414 -47.2809L244.127 -31.1221L250.828 -44.272C254.519 -51.5173 263.334 -54.4418 270.611 -50.8813L270.831 -50.7715C278.149 -47.0425 281.059 -38.0868 277.33 -30.7683C273.638 -23.523 264.824 -20.5986 257.547 -24.159L257.327 -24.2689L244.177 -30.9691L228.019 0.744109C221.945 12.6633 197.433 -12.8755 185.671 -8.95809C173.68 -4.96469 174.381 28.3108 162.231 22.1198L130.518 5.96142L123.818 19.1109C120.089 26.4294 111.133 29.3393 103.814 25.6104C96.4959 21.8814 93.586 12.9257 97.315 5.60721Z" stroke="url(#paint65_linear)"/>
<path fill-rule="evenodd" clip-rule="evenodd" d="M100.315 16.7404C103.098 9.01227 111.618 5.00288 119.346 7.78518L133.232 12.7843L145.288 -20.7039C149.548 -32.5362 173.481 -8.36208 183.754 -13.8736C195.548 -20.2014 194.294 -55.0472 207.878 -50.1565L241.367 -38.0997L246.366 -51.9858C249.12 -59.6366 257.499 -63.6427 265.165 -61.0224L265.397 -60.941C273.125 -58.1587 277.134 -49.6383 274.352 -41.9102C271.597 -34.2593 263.219 -30.2532 255.553 -32.8735L255.321 -32.9549L241.435 -37.9542L229.379 -4.46584C224.847 8.1205 197.328 -14.1447 186.149 -8.78397C174.753 -3.31922 179.619 29.606 166.789 24.9867L133.3 12.9304L128.301 26.816C125.519 34.5441 116.999 38.5535 109.271 35.7712C101.542 32.9889 97.533 24.4685 100.315 16.7404Z" stroke="url(#paint66_linear)"/>
<path fill-rule="evenodd" clip-rule="evenodd" d="M104.687 27.4097C106.479 19.3937 114.43 14.3481 122.446 16.1399L136.849 19.3592L144.613 -15.376C147.356 -27.6489 174.13 -6.66501 183.631 -13.4206C194.539 -21.1766 188.928 -55.5905 203.018 -52.4409L237.753 -44.6765L240.973 -59.0796C242.746 -67.0153 250.557 -72.0399 258.491 -70.4011L258.731 -70.3494C266.747 -68.5576 271.793 -60.6069 270.001 -52.591C268.227 -44.6552 260.417 -39.6306 252.483 -41.2695L252.242 -41.3212L237.84 -44.5407L230.075 -9.80532C227.157 3.24971 197.064 -15.3908 186.645 -8.67127C176.024 -1.82136 184.979 30.2344 171.67 27.2596L136.935 19.4956L133.716 33.8982C131.924 41.9141 123.973 46.9598 115.957 45.168C107.941 43.3763 102.896 35.4256 104.687 27.4097Z" stroke="url(#paint67_linear)"/>
<path fill-rule="evenodd" clip-rule="evenodd" d="M110.362 37.447C111.135 29.2697 118.391 23.2674 126.568 24.0404L141.261 25.4291L144.61 -10.0053C145.794 -22.5252 174.987 -5.06245 183.566 -12.9556C193.416 -22.0176 183.535 -55.4568 197.909 -54.098L233.344 -50.7482L234.733 -65.4413C235.498 -73.5368 242.617 -79.5007 250.694 -78.8691L250.939 -78.8479C259.116 -78.075 265.118 -70.8193 264.345 -62.6421C263.58 -54.5466 256.461 -48.5827 248.384 -49.2143L248.139 -49.2354L233.447 -50.6244L230.097 -15.1898C228.838 -1.87195 196.646 -16.5938 187.152 -8.62144C177.473 -0.494395 190.374 30.1863 176.798 28.903L141.364 25.5537L139.975 40.2462C139.202 48.4235 131.946 54.4259 123.769 53.6529C115.592 52.8799 109.589 45.6243 110.362 37.447Z" stroke="url(#paint68_linear)"/>
<path fill-rule="evenodd" clip-rule="evenodd" d="M117.25 46.6941C116.992 38.4844 123.438 31.62 131.648 31.362L146.399 30.8983L145.281 -4.6765C144.886 -17.246 176.037 -3.57981 183.56 -12.486C192.196 -22.7111 178.203 -54.6482 192.634 -55.1017L228.209 -56.2194L227.745 -70.9707C227.489 -79.0983 233.805 -85.9074 241.897 -86.2931L242.143 -86.3028C250.352 -86.5608 257.217 -80.1147 257.475 -71.905C257.73 -63.7774 251.415 -56.9683 243.323 -56.5826L243.077 -56.5729L228.326 -56.1094L229.444 -20.5344C229.864 -7.16384 196.081 -17.7349 187.66 -8.63539C179.077 0.64062 195.721 29.4624 182.092 29.8908L146.517 31.009L146.98 45.7598C147.238 53.9694 140.792 60.8338 132.582 61.0918C124.373 61.3498 117.508 54.9037 117.25 46.6941Z" stroke="url(#paint69_linear)"/>
<path fill-rule="evenodd" clip-rule="evenodd" d="M125.243 55.0046C123.958 46.892 129.493 39.2738 137.606 37.9889L152.183 35.6801L146.615 0.525894C144.647 -11.895 177.266 -2.24084 183.613 -12.0196C190.9 -23.2465 173.013 -53.1779 187.274 -55.4365L222.428 -61.0042L220.119 -75.581C218.847 -83.6125 224.259 -91.1594 232.239 -92.5563L232.482 -92.5967C240.595 -93.8816 248.213 -88.3467 249.498 -80.2341C250.77 -72.2026 245.358 -64.6557 237.378 -63.2588L237.135 -63.2184L222.558 -60.9098L228.126 -25.7554C230.219 -12.5429 195.377 -18.7964 188.163 -8.7133C180.81 1.56539 200.936 28.0738 187.467 30.207L152.313 35.7751L154.622 50.3515C155.907 58.4641 150.372 66.0823 142.259 67.3672C134.146 68.6521 126.528 63.1172 125.243 55.0046Z" stroke="url(#paint70_linear)"/>
<path fill-rule="evenodd" clip-rule="evenodd" d="M134.214 62.2481C131.922 54.3605 136.459 46.1087 144.347 43.8171L158.519 39.6996L148.589 5.52046C145.08 -6.55595 178.652 -1.06608 183.723 -11.5632C189.545 -23.6148 168.049 -51.0685 181.913 -55.0966L216.093 -65.0263L211.975 -79.1989C209.707 -87.0076 214.13 -95.1733 221.872 -97.5593L222.108 -97.6298C229.995 -99.9214 238.247 -95.3849 240.539 -87.4973C242.807 -79.6886 238.384 -71.5229 230.642 -69.1369L230.406 -69.0664L216.234 -64.949L226.164 -30.7697C229.896 -17.9237 194.545 -19.761 188.652 -8.85333C182.645 2.26594 205.934 26.0428 192.839 29.8473L158.66 39.7776L162.777 53.9496C165.069 61.8372 160.533 70.0891 152.645 72.3806C144.757 74.6722 136.506 70.1357 134.214 62.2481Z" stroke="url(#paint71_linear)"/>
<path fill-rule="evenodd" clip-rule="evenodd" d="M144.022 68.31C140.76 60.7718 144.226 52.0165 151.765 48.7544L165.309 42.8931L151.174 10.228C146.179 -1.31342 180.174 -0.0744317 183.889 -11.1244C188.155 -23.8107 163.387 -48.3536 176.638 -54.0877L209.303 -68.223L203.442 -81.7677C200.213 -89.2305 203.578 -97.8862 210.96 -101.224L211.185 -101.323C218.723 -104.585 227.478 -101.119 230.74 -93.5807C233.97 -86.1178 230.604 -77.4621 223.222 -74.1246L222.998 -74.0251L209.453 -68.1639L223.589 -35.4987C228.901 -23.2217 193.599 -20.6139 189.119 -9.05367C184.553 2.73082 210.639 23.4013 198.124 28.817L165.459 42.9528L171.32 56.497C174.582 64.0352 171.116 72.7905 163.578 76.0526C156.039 79.3147 147.284 75.8482 144.022 68.31Z" stroke="url(#paint72_linear)"/>
<path fill-rule="evenodd" clip-rule="evenodd" d="M154.513 73.0948C150.332 66.0249 152.674 56.9042 159.744 52.723L172.447 45.2104L154.329 14.5745C147.927 3.75004 181.809 0.718595 184.11 -10.7099C186.753 -23.8309 159.104 -45.076 171.531 -52.4256L202.167 -70.5435L194.655 -83.2467C190.515 -90.2459 192.769 -99.2552 199.675 -103.492L199.885 -103.619C206.955 -107.8 216.076 -105.458 220.257 -98.3879C224.396 -91.3887 222.143 -82.3795 215.237 -78.1431L215.027 -78.0162L202.323 -70.5037L220.442 -39.8676C227.251 -28.3533 192.554 -21.3415 189.559 -9.31102C186.505 2.95284 214.976 20.1909 203.239 27.1325L172.603 45.2507L180.115 57.9536C184.297 65.0235 181.955 74.1443 174.885 78.3254C167.815 82.5065 158.694 80.1647 154.513 73.0948Z" stroke="url(#paint73_linear)"/>
<path fill-rule="evenodd" clip-rule="evenodd" d="M165.52 76.5272C160.486 70.0371 161.666 60.6947 168.156 55.6605L179.817 46.6149L158.003 18.4914C150.295 8.55462 183.53 1.30057 184.38 -10.3263C185.357 -23.6749 155.264 -41.2872 166.672 -50.1365L194.796 -71.9512L185.75 -83.6127C180.767 -90.0379 181.873 -99.2586 188.193 -104.327L188.387 -104.479C194.877 -109.514 204.219 -108.333 209.253 -101.843C214.237 -95.4181 213.13 -86.1974 206.81 -81.1289L206.617 -80.9766L194.956 -71.9312L216.771 -43.8076C224.97 -33.2375 191.425 -21.9323 189.961 -9.62125C188.469 2.92857 218.876 16.4623 208.101 24.8203L179.978 46.6354L189.023 58.2965C194.057 64.7867 192.877 74.129 186.387 79.1633C179.897 84.1975 170.554 83.0173 165.52 76.5272Z" stroke="url(#paint74_linear)"/>
<path fill-rule="evenodd" clip-rule="evenodd" d="M176.872 78.5528C171.064 72.7448 171.064 63.3283 176.872 57.5203L187.307 47.0845L162.14 21.9169C153.247 13.0245 185.311 1.66221 184.698 -9.97957C183.994 -23.3454 151.93 -37.0471 162.14 -47.2564L187.308 -72.424L176.872 -82.8598C171.122 -88.6097 171.064 -97.8964 176.699 -103.717L176.872 -103.892C182.68 -109.7 192.096 -109.7 197.904 -103.892C203.654 -98.1425 203.712 -88.8558 198.077 -83.0351L197.904 -82.8598L187.468 -72.4242L212.636 -47.2564C222.095 -37.7973 190.232 -22.377 190.323 -9.97957C190.415 2.6583 222.279 12.2743 212.636 21.9169L187.469 47.0847L197.904 57.5203C203.712 63.3283 203.712 72.7448 197.904 78.5528C192.096 84.3608 182.68 84.3608 176.872 78.5528Z" stroke="url(#paint75_linear)"/>
<path fill-rule="evenodd" clip-rule="evenodd" d="M188.387 79.1399C181.897 74.1056 180.717 64.7633 185.751 58.2731L194.796 46.6117L166.673 24.7969C156.736 17.0891 187.123 1.79784 185.055 -9.6753C182.682 -22.8475 149.154 -32.4226 158.003 -43.831L179.818 -71.9544L168.157 -81C161.732 -85.9839 160.511 -95.1902 165.372 -101.671L165.521 -101.867C170.555 -108.357 179.897 -109.537 186.387 -104.503C192.813 -99.5189 194.034 -90.3126 189.173 -83.8316L189.024 -83.6361L179.978 -71.9748L208.102 -50.1599C218.672 -41.9609 188.992 -22.6686 190.636 -10.3803C192.312 2.14631 225.129 7.69293 216.771 18.468L194.957 46.5917L206.618 55.6371C213.108 60.6713 214.288 70.0137 209.254 76.5038C204.22 82.9939 194.877 84.1741 188.387 79.1399Z" stroke="url(#paint76_linear)"/>
<path fill-rule="evenodd" clip-rule="evenodd" d="M199.885 78.2789C192.815 74.0978 190.473 64.977 194.654 57.9071L202.167 45.204L171.531 27.086C160.707 20.6844 188.937 1.70524 185.448 -9.41833C181.442 -22.1892 146.979 -27.4866 154.328 -39.9141L172.447 -70.55L159.743 -78.0627C152.744 -82.202 150.379 -91.1826 154.389 -98.2217L154.513 -98.4344C158.694 -105.504 167.815 -107.846 174.885 -103.665C181.884 -99.5257 184.249 -90.5451 180.239 -83.5059L180.115 -83.2932L172.602 -70.5902L203.239 -52.4721C214.753 -45.6626 187.725 -22.8025 190.896 -10.8172C194.129 1.40058 227.383 2.79036 220.441 14.528L202.323 45.1641L215.026 52.6766C222.096 56.8577 224.438 65.9784 220.257 73.0483C216.076 80.1182 206.955 82.46 199.885 78.2789Z" stroke="url(#paint77_linear)"/>
<path fill-rule="evenodd" clip-rule="evenodd" d="M211.185 75.9836C203.646 72.7215 200.18 63.9662 203.442 56.428L209.303 42.8835L176.638 28.748C165.097 23.7536 190.726 1.38587 185.87 -9.2127C180.295 -21.3808 145.44 -22.317 151.174 -35.5677L165.309 -68.2328L151.765 -74.0941C144.302 -77.3235 140.83 -85.9369 143.926 -93.4232L144.022 -93.6497C147.284 -101.188 156.039 -104.654 163.578 -101.392C171.04 -98.1628 174.513 -89.5494 171.416 -82.0632L171.32 -81.8367L165.459 -68.2922L198.124 -54.1567C210.401 -48.844 186.452 -22.7768 191.1 -11.2834C195.839 0.432903 229.004 -2.35609 223.589 10.159L209.453 42.8243L222.998 48.6854C230.536 51.9475 234.002 60.7028 230.74 68.241C227.478 75.7792 218.723 79.2457 211.185 75.9836Z" stroke="url(#paint78_linear)"/>
<path fill-rule="evenodd" clip-rule="evenodd" d="M222.107 72.2902C214.22 69.9987 209.683 61.7468 211.975 53.8592L216.092 39.6869L181.913 29.7569C169.837 26.2484 192.46 0.844874 186.315 -9.06155C179.259 -20.435 144.56 -16.9953 148.589 -30.8601L158.519 -65.0393L144.346 -69.1568C136.537 -71.4254 132.013 -79.5357 134.147 -87.351L134.214 -87.5877C136.505 -95.4753 144.757 -100.012 152.645 -97.7202C160.453 -95.4516 164.978 -87.3413 162.844 -79.526L162.777 -79.2893L158.66 -65.117L192.839 -55.187C205.685 -51.4549 185.192 -22.5916 191.244 -11.7714C197.413 -0.741381 229.968 -7.66515 226.163 5.43005L216.234 39.6094L230.406 43.7267C238.293 46.0183 242.83 54.2701 240.538 62.1577C238.247 70.0453 229.995 74.5818 222.107 72.2902Z" stroke="url(#paint79_linear)"/>
<path fill-rule="evenodd" clip-rule="evenodd" d="M232.482 67.257C224.369 65.9721 218.834 58.3539 220.119 50.2413L222.428 35.6647L187.274 30.0968C174.853 28.1295 194.114 0.0907731 186.775 -8.96728C178.35 -19.3668 144.356 -11.6053 146.615 -25.8656L152.183 -61.0199L137.606 -63.3286C129.574 -64.6007 124.069 -72.08 125.207 -80.1011L125.243 -80.3443C126.528 -88.4569 134.146 -93.9918 142.259 -92.7069C150.291 -91.4349 155.796 -83.9556 154.658 -75.9344L154.622 -75.6912L152.313 -61.1146L187.467 -55.5467C200.68 -53.4541 183.966 -22.2499 191.326 -12.2736C198.829 -2.10375 230.26 -13.0531 228.126 0.415667L222.559 35.57L237.135 37.8787C245.248 39.1636 250.783 46.7818 249.498 54.8944C248.213 63.007 240.595 68.5419 232.482 67.257Z" stroke="url(#paint80_linear)"/>
<path fill-rule="evenodd" clip-rule="evenodd" d="M242.143 60.9634C233.933 60.7054 227.487 53.841 227.745 45.6313L228.208 30.8803L192.633 29.7623C180.064 29.3673 195.659 -0.86446 187.243 -8.93129C177.58 -18.1927 144.828 -6.23191 145.281 -20.6629L146.399 -56.2378L131.648 -56.7014C123.52 -56.9568 117.121 -63.6872 117.244 -71.7876L117.25 -72.0335C117.508 -80.2431 124.373 -86.6892 132.582 -86.4312C140.71 -86.1758 147.109 -79.4455 146.986 -71.3451L146.98 -71.0992L146.516 -56.3482L182.091 -55.2302C195.462 -54.81 182.791 -21.757 191.343 -12.7819C200.062 -3.63265 229.872 -18.4349 229.444 -4.80498L228.326 30.7699L243.077 31.2335C251.287 31.4915 257.733 38.3559 257.475 46.5656C257.217 54.7753 250.352 61.2214 242.143 60.9634Z" stroke="url(#paint81_linear)"/>
<path fill-rule="evenodd" clip-rule="evenodd" d="M250.938 53.5083C242.761 54.2813 235.506 48.2789 234.733 40.1017L233.344 25.4089L197.909 28.7584C185.389 29.9419 197.073 -2.00607 187.712 -8.95445C176.964 -16.9318 145.969 -0.960303 144.61 -15.3343L141.261 -50.7689L126.568 -49.38C118.472 -48.6147 111.28 -54.49 110.387 -62.542L110.362 -62.7866C109.589 -70.9639 115.591 -78.2195 123.769 -78.9925C131.864 -79.7578 139.056 -73.8825 139.949 -65.8305L139.975 -65.5858L141.363 -50.893L176.798 -54.2426C190.116 -55.5015 181.687 -21.121 191.297 -13.2886C201.094 -5.30426 228.814 -23.726 230.097 -10.1499L233.447 25.2846L248.139 23.8958C256.317 23.1228 263.572 29.1252 264.345 37.3024C265.118 45.4797 259.116 52.7353 250.938 53.5083Z" stroke="url(#paint82_linear)"/>
<path fill-rule="evenodd" clip-rule="evenodd" d="M258.731 45.0097C250.715 46.8015 242.764 41.7558 240.972 33.7399L237.753 19.337L203.017 27.1013C190.745 29.8446 198.332 -3.31574 188.174 -9.0361C176.511 -15.6036 147.762 4.12675 144.613 -9.96365L136.848 -44.699L122.445 -41.4795C114.51 -39.7057 106.638 -44.6332 104.743 -52.5098L104.687 -52.7493C102.895 -60.7652 107.941 -68.7159 115.957 -70.5077C123.893 -72.2816 131.764 -67.354 133.66 -59.4775L133.715 -59.2379L136.935 -44.835L171.67 -52.5993C184.725 -55.5174 180.671 -20.3516 191.188 -13.7854C201.908 -7.09193 227.1 -28.8426 230.075 -15.5344L237.839 19.2009L252.242 15.9815C260.258 14.1897 268.209 19.2354 270 27.2513C271.792 35.2672 266.747 43.2179 258.731 45.0097Z" stroke="url(#paint83_linear)"/>
<path fill-rule="evenodd" clip-rule="evenodd" d="M265.397 35.6014C257.669 38.3837 249.148 34.3743 246.366 26.6462L241.367 12.7604L207.878 24.8169C196.046 29.0768 199.417 -4.77295 188.622 -9.17507C176.229 -14.2291 150.179 8.94889 145.289 -4.63566L133.232 -38.124L119.346 -33.1247C111.695 -30.3703 103.268 -34.2723 100.401 -41.8492L100.315 -42.08C97.5332 -49.8081 101.543 -58.3285 109.271 -61.1108C116.922 -63.8653 125.349 -59.9632 128.216 -52.3863L128.302 -52.1556L133.301 -38.2697L166.789 -50.3263C179.375 -54.8576 179.761 -19.4611 191.017 -14.2647C202.492 -8.96758 224.76 -33.7042 229.379 -20.8737L241.436 12.6145L255.321 7.61537C263.049 4.83307 271.57 8.84246 274.352 16.5706C277.134 24.2987 273.125 32.8191 265.397 35.6014Z" stroke="url(#paint84_linear)"/>
<path fill-rule="evenodd" clip-rule="evenodd" d="M270.831 25.4318C263.512 29.1608 254.556 26.2509 250.828 18.9324L244.127 5.78272L212.414 21.9413C201.209 27.6506 200.311 -6.35474 189.05 -9.3692C176.121 -12.8301 153.181 13.4301 146.626 0.565594L130.468 -31.1477L117.318 -24.4474C110.073 -20.7557 101.223 -23.5708 97.4284 -30.7286L97.315 -30.9468C93.586 -38.2653 96.4959 -47.221 103.814 -50.95C111.06 -54.6416 119.91 -51.8266 123.704 -44.6688L123.818 -44.4506L130.518 -31.3008L162.231 -47.4595C174.15 -53.5326 178.969 -18.4635 190.788 -14.7189C202.836 -10.9017 221.828 -38.2341 228.019 -26.0837L244.177 5.62929L257.327 -1.07072C264.645 -4.79968 273.601 -1.88979 277.33 5.42869C281.059 12.7472 278.149 21.7029 270.831 25.4318Z" stroke="url(#paint85_linear)"/>
<path fill-rule="evenodd" clip-rule="evenodd" d="M274.948 14.6614C268.154 19.2782 258.904 17.5137 254.288 10.7203L245.992 -1.48596L216.554 18.5199C206.153 25.5885 201 -8.03611 189.45 -9.61536C176.189 -11.4285 156.722 17.4996 148.606 5.55814L128.6 -23.8799L116.394 -15.5843C109.669 -11.0137 100.536 -12.6974 95.8739 -19.3231L95.734 -19.5254C91.1172 -26.3188 92.8817 -35.5686 99.6751 -40.1854C106.401 -44.7561 115.534 -43.0724 120.195 -36.4466L120.335 -36.2443L128.63 -24.038L158.068 -44.044C169.132 -51.5631 178.309 -17.3745 190.504 -15.1407C202.935 -12.8636 218.351 -42.3608 226.016 -31.0822L246.023 -1.64447L258.229 -9.93972C265.022 -14.5565 274.272 -12.792 278.889 -5.99861C283.505 0.794799 281.741 10.0446 274.948 14.6614Z" stroke="url(#paint86_linear)"/>
<path fill-rule="evenodd" clip-rule="evenodd" d="M277.682 3.46001C271.521 8.89184 262.123 8.30057 256.691 2.13936L246.931 -8.93095L220.233 14.6067C210.8 22.9232 201.473 -9.79047 189.816 -9.90962C176.433 -10.0464 160.745 21.0935 151.196 10.2633L127.659 -16.4352L116.588 -6.67518C110.489 -1.29766 101.217 -1.8234 95.7614 -7.81266L95.5973 -7.99582C90.1654 -14.157 90.7567 -23.555 96.9179 -28.9869C103.018 -34.3644 112.29 -33.8387 117.745 -27.8494L117.909 -27.6662L127.669 -16.5958L154.367 -40.1336C164.402 -48.9801 177.791 -16.2113 190.169 -15.5235C202.788 -14.8224 214.386 -46.0192 223.404 -35.7902L246.942 -9.09202L258.012 -18.8517C264.173 -24.2835 273.571 -23.6923 279.003 -17.5311C284.435 -11.3698 283.844 -1.97183 277.682 3.46001Z" stroke="url(#paint87_linear)"/>
<path fill-rule="evenodd" clip-rule="evenodd" d="M278.99 -7.99583C273.559 -1.83463 264.161 -1.24336 257.999 -6.67519L246.929 -16.435L223.391 10.2633C215.075 19.6965 201.722 -11.5903 190.141 -10.2475C176.846 -8.70576 165.185 24.1548 154.354 14.6067L127.656 -8.9312L117.896 2.13935C112.519 8.23894 103.254 8.87945 97.091 3.62114L96.9052 3.45999C90.744 -1.97184 90.1528 -11.3699 95.5846 -17.5311C100.962 -23.6307 110.227 -24.2712 116.39 -19.0129L116.576 -18.8517L127.646 -9.0918L151.184 -35.7902C160.03 -45.8246 177.421 -14.9922 189.788 -15.8614C202.395 -16.7473 209.992 -49.1517 220.221 -40.1336L246.919 -16.5961L256.679 -27.6662C262.111 -33.8275 271.509 -34.4187 277.67 -28.9869C283.831 -23.5551 284.422 -14.157 278.99 -7.99583Z" stroke="url(#paint88_linear)"/>
<path fill-rule="evenodd" clip-rule="evenodd" d="M278.854 -19.5254C274.237 -12.7319 264.988 -10.9674 258.194 -15.5842L245.988 -23.8796L225.982 5.55821C218.913 15.9594 201.744 -13.4071 190.423 -10.6235C177.426 -7.4276 169.975 26.6354 158.034 18.52L128.596 -1.48615L120.301 10.7204C115.73 17.4458 106.618 19.2425 99.8451 14.7981L99.6406 14.6615C92.8471 10.0447 91.0827 0.794867 95.6995 -5.99855C100.27 -12.724 109.382 -14.5207 116.155 -10.0762L116.359 -9.93965L128.566 -1.64418L148.572 -31.0821C156.091 -42.1461 177.209 -13.7365 189.369 -16.1488C201.766 -18.6079 205.241 -51.7088 216.52 -44.0439L245.958 -24.0382L254.253 -36.2443C258.87 -43.0377 268.12 -44.8022 274.913 -40.1854C281.706 -35.5686 283.471 -26.3188 278.854 -19.5254Z" stroke="url(#paint89_linear)"/>
<path fill-rule="evenodd" clip-rule="evenodd" d="M277.272 -30.9467C273.543 -23.6283 264.588 -20.7184 257.269 -24.4473L244.119 -31.1474L227.961 0.565674C222.252 11.7707 201.537 -15.2123 190.655 -11.0318C178.161 -6.2321 175.038 28.4962 162.173 21.9414L130.46 5.78254L123.76 18.9325C120.068 26.1778 111.254 29.1022 103.977 25.5418L103.757 25.4319C96.4383 21.703 93.5284 12.7473 97.2573 5.42877C100.949 -1.81653 109.763 -4.74096 117.04 -1.18053L117.26 -1.07065L130.41 5.62957L146.569 -26.0836C152.642 -38.0028 177.154 -12.464 188.917 -16.3814C200.907 -20.3749 200.206 -53.6503 212.357 -47.4594L244.07 -31.301L250.77 -44.4505C254.499 -51.769 263.455 -54.6789 270.773 -50.9499C278.092 -47.2209 281.001 -38.2652 277.272 -30.9467Z" stroke="url(#paint90_linear)"/>
<path fill-rule="evenodd" clip-rule="evenodd" d="M274.272 -42.08C271.489 -34.3519 262.969 -30.3425 255.241 -33.1248L241.355 -38.1239L229.298 -4.6357C225.039 7.19658 201.106 -16.9775 190.833 -11.466C179.039 -5.13824 180.293 29.7076 166.709 24.8169L133.22 12.7601L128.221 26.6462C125.467 34.297 117.088 38.3031 109.422 35.6828L109.19 35.6014C101.462 32.8191 97.4528 24.2987 100.235 16.5706C102.99 8.9197 111.368 4.91359 119.034 7.53389L119.266 7.61532L133.152 12.6146L145.208 -20.8738C149.74 -33.4601 177.259 -11.1949 188.438 -16.5556C199.834 -22.0204 194.968 -54.9456 207.798 -50.3263L241.286 -38.27L246.286 -52.1556C249.068 -59.8837 257.588 -63.8931 265.316 -61.1108C273.045 -58.3285 277.054 -49.8081 274.272 -42.08Z" stroke="url(#paint91_linear)"/>
<path fill-rule="evenodd" clip-rule="evenodd" d="M269.9 -52.7494C268.108 -44.7335 260.158 -39.6879 252.142 -41.4796L237.739 -44.699L229.974 -9.96376C227.231 2.30912 200.457 -18.6748 190.956 -11.9192C180.048 -4.16313 185.66 30.2507 171.569 27.1012L136.834 19.3367L133.615 33.7398C131.841 41.6755 124.031 46.7002 116.097 45.0613L115.856 45.0096C107.84 43.2178 102.795 35.2671 104.587 27.2512C106.36 19.3155 114.171 14.2908 122.105 15.9297L122.345 15.9814L136.748 19.2009L144.512 -15.5345C147.43 -28.5895 177.523 -9.94894 187.942 -16.6685C198.563 -23.5184 189.609 -55.5741 202.917 -52.5994L237.652 -44.8354L240.872 -59.238C242.664 -67.2539 250.614 -72.2996 258.63 -70.5078C266.646 -68.716 271.692 -60.7654 269.9 -52.7494Z" stroke="url(#paint92_linear)"/>
<path fill-rule="evenodd" clip-rule="evenodd" d="M264.226 -62.7867C263.453 -54.6094 256.197 -48.607 248.02 -49.38L233.327 -50.7688L229.978 -15.3344C228.794 -2.81444 199.601 -20.2772 191.022 -12.3841C181.172 -3.32207 191.053 30.1171 176.679 28.7584L141.244 25.4086L139.855 40.1016C139.09 48.1971 131.971 54.161 123.894 53.5294L123.649 53.5083C115.472 52.7353 109.47 45.4797 110.243 37.3024C111.008 29.2069 118.127 23.243 126.203 23.8746L126.449 23.8958L141.141 25.2847L144.491 -10.1499C145.75 -23.4677 177.942 -8.74581 187.436 -16.7182C197.115 -24.8453 184.214 -55.5259 197.79 -54.2426L233.224 -50.8933L234.613 -65.5859C235.386 -73.7632 242.642 -79.7655 250.819 -78.9925C258.996 -78.2196 264.999 -70.9639 264.226 -62.7867Z" stroke="url(#paint93_linear)"/>
<path fill-rule="evenodd" clip-rule="evenodd" d="M257.338 -72.0336C257.596 -63.8239 251.149 -56.9595 242.94 -56.7015L228.189 -56.2379L229.307 -20.663C229.702 -8.0935 198.55 -21.7597 191.028 -12.8536C182.392 -2.62849 196.385 29.3086 181.954 29.7621L146.379 30.8799L146.843 45.6312C147.098 53.7587 140.783 60.5678 132.691 60.9535L132.445 60.9632C124.236 61.2212 117.371 54.7751 117.113 46.5654C116.858 38.4379 123.173 31.6288 131.265 31.2431L131.511 31.2334L146.262 30.7699L145.144 -4.80511C144.724 -18.1757 178.507 -7.60463 186.928 -16.7041C195.511 -25.9802 178.866 -54.802 192.496 -55.2303L228.071 -56.3485L227.608 -71.0993C227.35 -79.309 233.796 -86.1734 242.005 -86.4314C250.215 -86.6894 257.08 -80.2433 257.338 -72.0336Z" stroke="url(#paint94_linear)"/>
<path fill-rule="evenodd" clip-rule="evenodd" d="M249.346 -80.3442C250.63 -72.2316 245.096 -64.6135 236.983 -63.3285L222.406 -61.0197L227.974 -25.8656C229.941 -13.4446 197.323 -23.0988 190.976 -13.3201C183.689 -2.09318 201.575 27.8382 187.315 30.0968L152.161 35.6645L154.47 50.2413C155.742 58.2728 150.33 65.8197 142.35 67.2166L142.107 67.257C133.994 68.5419 126.376 63.007 125.091 54.8944C123.819 46.8629 129.231 39.316 137.211 37.9191L137.454 37.8787L152.03 35.5701L146.463 0.415724C144.37 -12.7968 179.212 -6.54325 186.425 -16.6264C193.779 -26.9051 173.653 -53.4134 187.122 -55.5467L222.276 -61.1148L219.967 -75.6912C218.682 -83.8038 224.217 -91.422 232.33 -92.7069C240.442 -93.9918 248.061 -88.4568 249.346 -80.3442Z" stroke="url(#paint95_linear)"/>
<path fill-rule="evenodd" clip-rule="evenodd" d="M240.374 -87.5876C242.666 -79.7001 238.129 -71.4482 230.242 -69.1567L216.07 -65.0391L226 -30.86C229.508 -18.7836 195.937 -24.2735 190.866 -13.7763C185.043 -1.7247 206.54 25.7289 192.675 29.757L158.496 39.6868L162.613 53.8593C164.882 61.668 160.458 69.8338 152.716 72.2198L152.481 72.2903C144.593 74.5819 136.341 70.0454 134.05 62.1578C131.781 54.3491 136.205 46.1834 143.947 43.7974L144.182 43.7268L158.355 39.6095L148.425 5.43016C144.692 -7.41588 180.043 -5.57851 185.936 -16.4862C191.943 -27.6055 168.654 -51.3824 181.749 -55.1869L215.928 -65.1171L211.811 -79.2892C209.519 -87.1768 214.056 -95.4286 221.943 -97.7202C229.831 -100.012 238.083 -95.4752 240.374 -87.5876Z" stroke="url(#paint96_linear)"/>
<path fill-rule="evenodd" clip-rule="evenodd" d="M230.565 -93.6497C233.827 -86.1115 230.361 -77.3562 222.823 -74.0941L209.278 -68.2328L223.414 -35.5677C228.408 -24.0262 194.414 -25.2652 190.698 -14.2153C186.432 -1.52896 211.2 23.014 197.949 28.748L165.284 42.8833L171.145 56.428C174.375 63.8908 171.01 72.5466 163.628 75.8841L163.403 75.9836C155.865 79.2457 147.109 75.7792 143.847 68.241C140.618 60.7782 143.983 52.1225 151.365 48.7849L151.59 48.6854L165.134 42.8243L150.999 10.159C145.686 -2.11796 180.989 -4.72574 185.468 -16.286C190.034 -28.0705 163.948 -48.7409 176.463 -54.1567L209.128 -68.2924L203.267 -81.8367C200.005 -89.3749 203.472 -98.1302 211.01 -101.392C218.548 -104.654 227.303 -101.188 230.565 -93.6497Z" stroke="url(#paint97_linear)"/>
<path fill-rule="evenodd" clip-rule="evenodd" d="M220.075 -98.4345C224.256 -91.3647 221.915 -82.2439 214.845 -78.0628L202.142 -70.5501L220.26 -39.9142C226.661 -29.0898 192.779 -26.0583 190.478 -14.6298C187.836 -1.50886 215.484 19.7363 203.057 27.0859L172.421 45.2037L179.934 57.907C184.073 64.9062 181.819 73.9155 174.914 78.1519L174.703 78.2788C167.633 82.4599 158.512 80.1181 154.331 73.0482C150.192 66.049 152.446 57.0398 159.351 52.8033L159.562 52.6764L172.265 45.1639L154.147 14.5279C147.337 3.0136 182.035 -3.9982 185.03 -16.0287C188.083 -28.2926 159.612 -45.5306 171.35 -52.4722L201.985 -70.5905L194.473 -83.2934C190.292 -90.3633 192.634 -99.484 199.704 -103.665C206.773 -107.846 215.894 -105.504 220.075 -98.4345Z" stroke="url(#paint98_linear)"/>
<path fill-rule="evenodd" clip-rule="evenodd" d="M209.067 -101.867C214.102 -95.3767 212.921 -86.0344 206.431 -81.0001L194.77 -71.9546L216.585 -43.8311C224.293 -33.8943 191.058 -26.6402 190.207 -15.0134C189.23 -1.66475 219.323 15.9476 207.915 24.7968L179.791 46.6115L188.837 58.273C193.821 64.6982 192.714 73.9189 186.394 78.9874L186.201 79.1397C179.711 84.174 170.368 82.9938 165.334 76.5037C160.35 70.0784 161.457 60.8578 167.777 55.7893L167.97 55.6369L179.632 46.5916L157.817 18.4679C149.618 7.89785 183.163 -3.40738 184.626 -15.7184C186.118 -28.2682 155.711 -41.802 166.486 -50.16L194.61 -71.975L185.565 -83.6362C180.53 -90.1263 181.71 -99.4687 188.201 -104.503C194.691 -109.537 204.033 -108.357 209.067 -101.867Z" stroke="url(#paint99_linear)"/>
<path fill-rule="evenodd" clip-rule="evenodd" d="M197.717 -103.892C203.525 -98.0845 203.525 -88.6679 197.717 -82.8599L187.281 -72.4242L212.449 -47.2565C221.341 -38.3641 189.278 -27.0019 189.891 -15.3601C190.595 -1.99426 222.658 11.7075 212.449 21.9168L187.281 47.0843L197.717 57.5202C203.467 63.2701 203.524 72.5568 197.889 78.3774L197.717 78.5527C191.909 84.3607 182.492 84.3607 176.684 78.5527C170.934 72.8028 170.877 63.5161 176.512 57.6955L176.684 57.5202L187.12 47.0845L161.952 21.9168C152.493 12.4577 184.357 -2.9627 184.266 -15.3601C184.173 -27.998 152.31 -37.614 161.952 -47.2565L187.12 -72.4244L176.684 -82.8599C170.876 -88.6679 170.876 -98.0845 176.684 -103.892C182.492 -109.7 191.909 -109.7 197.717 -103.892Z" stroke="url(#paint100_linear)"/>
</g>
<defs>
<linearGradient id="paint0_linear" x1="-52" y1="120.185" x2="90.3698" y2="175.798" gradientUnits="userSpaceOnUse">
<stop stop-color="#844EFF"/>
<stop offset="1" stop-color="#88F8FF"/>
</linearGradient>
<linearGradient id="paint1_linear" x1="299.597" y1="286.621" x2="343.885" y2="637.2" gradientUnits="userSpaceOnUse">
<stop stop-color="#FF5252"/>
<stop offset="1" stop-color="#FF72B6"/>
</linearGradient>
<linearGradient id="paint2_linear" x1="278.982" y1="296.972" x2="366.861" y2="639.236" gradientUnits="userSpaceOnUse">
<stop stop-color="#FF5252"/>
<stop offset="1" stop-color="#FF72B6"/>
</linearGradient>
<linearGradient id="paint3_linear" x1="259.828" y1="309.824" x2="389.911" y2="638.375" gradientUnits="userSpaceOnUse">
<stop stop-color="#FF5252"/>
<stop offset="1" stop-color="#FF72B6"/>
</linearGradient>
<linearGradient id="paint4_linear" x1="242.437" y1="324.976" x2="412.672" y2="634.633" gradientUnits="userSpaceOnUse">
<stop stop-color="#FF5252"/>
<stop offset="1" stop-color="#FF72B6"/>
</linearGradient>
<linearGradient id="paint5_linear" x1="227.082" y1="342.189" x2="434.785" y2="628.067" gradientUnits="userSpaceOnUse">
<stop stop-color="#FF5252"/>
<stop offset="1" stop-color="#FF72B6"/>
</linearGradient>
<linearGradient id="paint6_linear" x1="214.004" y1="361.19" x2="455.9" y2="618.782" gradientUnits="userSpaceOnUse">
<stop stop-color="#FF5252"/>
<stop offset="1" stop-color="#FF72B6"/>
</linearGradient>
<linearGradient id="paint7_linear" x1="203.413" y1="381.68" x2="475.685" y2="606.924" gradientUnits="userSpaceOnUse">
<stop stop-color="#FF5252"/>
<stop offset="1" stop-color="#FF72B6"/>
</linearGradient>
<linearGradient id="paint8_linear" x1="195.471" y1="403.337" x2="493.827" y2="592.68" gradientUnits="userSpaceOnUse">
<stop stop-color="#FF5252"/>
<stop offset="1" stop-color="#FF72B6"/>
</linearGradient>
<linearGradient id="paint9_linear" x1="190.307" y1="425.818" x2="510.041" y2="576.273" gradientUnits="userSpaceOnUse">
<stop stop-color="#FF5252"/>
<stop offset="1" stop-color="#FF72B6"/>
</linearGradient>
<linearGradient id="paint10_linear" x1="188" y1="448.768" x2="524.071" y2="557.964" gradientUnits="userSpaceOnUse">
<stop stop-color="#FF5252"/>
<stop offset="1" stop-color="#FF72B6"/>
</linearGradient>
<linearGradient id="paint11_linear" x1="188.588" y1="471.827" x2="535.695" y2="538.042" gradientUnits="userSpaceOnUse">
<stop stop-color="#FF5252"/>
<stop offset="1" stop-color="#FF72B6"/>
</linearGradient>
<linearGradient id="paint12_linear" x1="192.064" y1="494.631" x2="544.732" y2="516.819" gradientUnits="userSpaceOnUse">
<stop stop-color="#FF5252"/>
<stop offset="1" stop-color="#FF72B6"/>
</linearGradient>
<linearGradient id="paint13_linear" x1="198.369" y1="516.819" x2="551.037" y2="494.631" gradientUnits="userSpaceOnUse">
<stop stop-color="#FF5252"/>
<stop offset="1" stop-color="#FF72B6"/>
</linearGradient>
<linearGradient id="paint14_linear" x1="207.405" y1="538.042" x2="554.512" y2="471.827" gradientUnits="userSpaceOnUse">
<stop stop-color="#FF5252"/>
<stop offset="1" stop-color="#FF72B6"/>
</linearGradient>
<linearGradient id="paint15_linear" x1="219.029" y1="557.965" x2="555.099" y2="448.769" gradientUnits="userSpaceOnUse">
<stop stop-color="#FF5252"/>
<stop offset="1" stop-color="#FF72B6"/>
</linearGradient>
<linearGradient id="paint16_linear" x1="233.06" y1="576.273" x2="552.794" y2="425.818" gradientUnits="userSpaceOnUse">
<stop stop-color="#FF5252"/>
<stop offset="1" stop-color="#FF72B6"/>
</linearGradient>
<linearGradient id="paint17_linear" x1="249.273" y1="592.68" x2="547.63" y2="403.337" gradientUnits="userSpaceOnUse">
<stop stop-color="#FF5252"/>
<stop offset="1" stop-color="#FF72B6"/>
</linearGradient>
<linearGradient id="paint18_linear" x1="267.417" y1="606.924" x2="539.69" y2="381.68" gradientUnits="userSpaceOnUse">
<stop stop-color="#FF5252"/>
<stop offset="1" stop-color="#FF72B6"/>
</linearGradient>
<linearGradient id="paint19_linear" x1="287.202" y1="618.782" x2="529.097" y2="361.19" gradientUnits="userSpaceOnUse">
<stop stop-color="#FF5252"/>
<stop offset="1" stop-color="#FF72B6"/>
</linearGradient>
<linearGradient id="paint20_linear" x1="308.317" y1="628.067" x2="516.02" y2="342.189" gradientUnits="userSpaceOnUse">
<stop stop-color="#FF5252"/>
<stop offset="1" stop-color="#FF72B6"/>
</linearGradient>
<linearGradient id="paint21_linear" x1="330.429" y1="634.633" x2="500.664" y2="324.976" gradientUnits="userSpaceOnUse">
<stop stop-color="#FF5252"/>
<stop offset="1" stop-color="#FF72B6"/>
</linearGradient>
<linearGradient id="paint22_linear" x1="353.189" y1="638.375" x2="483.272" y2="309.824" gradientUnits="userSpaceOnUse">
<stop stop-color="#FF5252"/>
<stop offset="1" stop-color="#FF72B6"/>
</linearGradient>
<linearGradient id="paint23_linear" x1="376.24" y1="639.235" x2="464.119" y2="296.971" gradientUnits="userSpaceOnUse">
<stop stop-color="#FF5252"/>
<stop offset="1" stop-color="#FF72B6"/>
</linearGradient>
<linearGradient id="paint24_linear" x1="399.216" y1="637.2" x2="443.504" y2="286.621" gradientUnits="userSpaceOnUse">
<stop stop-color="#FF5252"/>
<stop offset="1" stop-color="#FF72B6"/>
</linearGradient>
<linearGradient id="paint25_linear" x1="421.757" y1="632.301" x2="421.757" y2="278.935" gradientUnits="userSpaceOnUse">
<stop stop-color="#FF5252"/>
<stop offset="1" stop-color="#FF72B6"/>
</linearGradient>
<linearGradient id="paint26_linear" x1="443.505" y1="624.615" x2="399.217" y2="274.036" gradientUnits="userSpaceOnUse">
<stop stop-color="#FF5252"/>
<stop offset="1" stop-color="#FF72B6"/>
</linearGradient>
<linearGradient id="paint27_linear" x1="464.118" y1="614.264" x2="376.239" y2="272" gradientUnits="userSpaceOnUse">
<stop stop-color="#FF5252"/>
<stop offset="1" stop-color="#FF72B6"/>
</linearGradient>
<linearGradient id="paint28_linear" x1="483.271" y1="601.411" x2="353.189" y2="272.86" gradientUnits="userSpaceOnUse">
<stop stop-color="#FF5252"/>
<stop offset="1" stop-color="#FF72B6"/>
</linearGradient>
<linearGradient id="paint29_linear" x1="500.663" y1="586.259" x2="330.428" y2="276.603" gradientUnits="userSpaceOnUse">
<stop stop-color="#FF5252"/>
<stop offset="1" stop-color="#FF72B6"/>
</linearGradient>
<linearGradient id="paint30_linear" x1="516.02" y1="569.047" x2="308.317" y2="283.168" gradientUnits="userSpaceOnUse">
<stop stop-color="#FF5252"/>
<stop offset="1" stop-color="#FF72B6"/>
</linearGradient>
<linearGradient id="paint31_linear" x1="529.097" y1="550.046" x2="287.202" y2="292.453" gradientUnits="userSpaceOnUse">
<stop stop-color="#FF5252"/>
<stop offset="1" stop-color="#FF72B6"/>
</linearGradient>
<linearGradient id="paint32_linear" x1="539.689" y1="529.555" x2="267.417" y2="304.312" gradientUnits="userSpaceOnUse">
<stop stop-color="#FF5252"/>
<stop offset="1" stop-color="#FF72B6"/>
</linearGradient>
<linearGradient id="paint33_linear" x1="547.63" y1="507.899" x2="249.273" y2="318.556" gradientUnits="userSpaceOnUse">
<stop stop-color="#FF5252"/>
<stop offset="1" stop-color="#FF72B6"/>
</linearGradient>
<linearGradient id="paint34_linear" x1="552.795" y1="485.418" x2="233.06" y2="334.962" gradientUnits="userSpaceOnUse">
<stop stop-color="#FF5252"/>
<stop offset="1" stop-color="#FF72B6"/>
</linearGradient>
<linearGradient id="paint35_linear" x1="555.1" y1="462.467" x2="219.029" y2="353.271" gradientUnits="userSpaceOnUse">
<stop stop-color="#FF5252"/>
<stop offset="1" stop-color="#FF72B6"/>
</linearGradient>
<linearGradient id="paint36_linear" x1="554.512" y1="439.408" x2="207.405" y2="373.194" gradientUnits="userSpaceOnUse">
<stop stop-color="#FF5252"/>
<stop offset="1" stop-color="#FF72B6"/>
</linearGradient>
<linearGradient id="paint37_linear" x1="551.038" y1="416.605" x2="198.369" y2="394.417" gradientUnits="userSpaceOnUse">
<stop stop-color="#FF5252"/>
<stop offset="1" stop-color="#FF72B6"/>
</linearGradient>
<linearGradient id="paint38_linear" x1="544.731" y1="394.417" x2="192.063" y2="416.605" gradientUnits="userSpaceOnUse">
<stop stop-color="#FF5252"/>
<stop offset="1" stop-color="#FF72B6"/>
</linearGradient>
<linearGradient id="paint39_linear" x1="535.697" y1="373.194" x2="188.59" y2="439.408" gradientUnits="userSpaceOnUse">
<stop stop-color="#FF5252"/>
<stop offset="1" stop-color="#FF72B6"/>
</linearGradient>
<linearGradient id="paint40_linear" x1="524.071" y1="353.271" x2="188.001" y2="462.467" gradientUnits="userSpaceOnUse">
<stop stop-color="#FF5252"/>
<stop offset="1" stop-color="#FF72B6"/>
</linearGradient>
<linearGradient id="paint41_linear" x1="510.041" y1="334.962" x2="190.306" y2="485.418" gradientUnits="userSpaceOnUse">
<stop stop-color="#FF5252"/>
<stop offset="1" stop-color="#FF72B6"/>
</linearGradient>
<linearGradient id="paint42_linear" x1="493.827" y1="318.556" x2="195.471" y2="507.899" gradientUnits="userSpaceOnUse">
<stop stop-color="#FF5252"/>
<stop offset="1" stop-color="#FF72B6"/>
</linearGradient>
<linearGradient id="paint43_linear" x1="475.685" y1="304.312" x2="203.412" y2="529.555" gradientUnits="userSpaceOnUse">
<stop stop-color="#FF5252"/>
<stop offset="1" stop-color="#FF72B6"/>
</linearGradient>
<linearGradient id="paint44_linear" x1="455.899" y1="292.453" x2="214.004" y2="550.046" gradientUnits="userSpaceOnUse">
<stop stop-color="#FF5252"/>
<stop offset="1" stop-color="#FF72B6"/>
</linearGradient>
<linearGradient id="paint45_linear" x1="434.785" y1="283.168" x2="227.082" y2="569.047" gradientUnits="userSpaceOnUse">
<stop stop-color="#FF5252"/>
<stop offset="1" stop-color="#FF72B6"/>
</linearGradient>
<linearGradient id="paint46_linear" x1="412.673" y1="276.603" x2="242.438" y2="586.259" gradientUnits="userSpaceOnUse">
<stop stop-color="#FF5252"/>
<stop offset="1" stop-color="#FF72B6"/>
</linearGradient>
<linearGradient id="paint47_linear" x1="389.911" y1="272.86" x2="259.829" y2="601.411" gradientUnits="userSpaceOnUse">
<stop stop-color="#FF5252"/>
<stop offset="1" stop-color="#FF72B6"/>
</linearGradient>
<linearGradient id="paint48_linear" x1="366.861" y1="272" x2="278.983" y2="614.264" gradientUnits="userSpaceOnUse">
<stop stop-color="#FF5252"/>
<stop offset="1" stop-color="#FF72B6"/>
</linearGradient>
<linearGradient id="paint49_linear" x1="343.884" y1="274.036" x2="299.596" y2="624.615" gradientUnits="userSpaceOnUse">
<stop stop-color="#FF5252"/>
<stop offset="1" stop-color="#FF72B6"/>
</linearGradient>
<linearGradient id="paint50_linear" x1="321.345" y1="278.935" x2="321.345" y2="632.301" gradientUnits="userSpaceOnUse">
<stop stop-color="#FF5252"/>
<stop offset="1" stop-color="#FF72B6"/>
</linearGradient>
<linearGradient id="paint51_linear" x1="148.407" y1="-103.793" x2="223.475" y2="-104.928" gradientUnits="userSpaceOnUse">
<stop stop-color="#844EFF"/>
<stop offset="1" stop-color="#88F8FF"/>
</linearGradient>
<linearGradient id="paint52_linear" x1="137.292" y1="-98.2006" x2="211.626" y2="-108.735" gradientUnits="userSpaceOnUse">
<stop stop-color="#844EFF"/>
<stop offset="1" stop-color="#88F8FF"/>
</linearGradient>
<linearGradient id="paint53_linear" x1="126.967" y1="-91.2593" x2="199.395" y2="-111.027" gradientUnits="userSpaceOnUse">
<stop stop-color="#844EFF"/>
<stop offset="1" stop-color="#88F8FF"/>
</linearGradient>
<linearGradient id="paint54_linear" x1="117.593" y1="-83.0787" x2="186.971" y2="-111.768" gradientUnits="userSpaceOnUse">
<stop stop-color="#844EFF"/>
<stop offset="1" stop-color="#88F8FF"/>
</linearGradient>
<linearGradient id="paint55_linear" x1="109.319" y1="-73.7877" x2="174.554" y2="-110.946" gradientUnits="userSpaceOnUse">
<stop stop-color="#844EFF"/>
<stop offset="1" stop-color="#88F8FF"/>
</linearGradient>
<linearGradient id="paint56_linear" x1="102.273" y1="-63.5328" x2="162.337" y2="-108.575" gradientUnits="userSpaceOnUse">
<stop stop-color="#844EFF"/>
<stop offset="1" stop-color="#88F8FF"/>
</linearGradient>
<linearGradient id="paint57_linear" x1="96.5687" y1="-52.4757" x2="150.514" y2="-104.69" gradientUnits="userSpaceOnUse">
<stop stop-color="#844EFF"/>
<stop offset="1" stop-color="#88F8FF"/>
</linearGradient>
<linearGradient id="paint58_linear" x1="92.2945" y1="-40.7909" x2="139.27" y2="-99.355" gradientUnits="userSpaceOnUse">
<stop stop-color="#844EFF"/>
<stop offset="1" stop-color="#88F8FF"/>
</linearGradient>
<linearGradient id="paint59_linear" x1="89.5197" y1="-28.6627" x2="128.785" y2="-92.6526" gradientUnits="userSpaceOnUse">
<stop stop-color="#844EFF"/>
<stop offset="1" stop-color="#88F8FF"/>
</linearGradient>
<linearGradient id="paint60_linear" x1="88.286" y1="-16.2822" x2="119.221" y2="-84.6887" gradientUnits="userSpaceOnUse">
<stop stop-color="#844EFF"/>
<stop offset="1" stop-color="#88F8FF"/>
</linearGradient>
<linearGradient id="paint61_linear" x1="88.6132" y1="-3.84487" x2="110.731" y2="-75.5893" gradientUnits="userSpaceOnUse">
<stop stop-color="#844EFF"/>
<stop offset="1" stop-color="#88F8FF"/>
</linearGradient>
<linearGradient id="paint62_linear" x1="90.4983" y1="8.45348" x2="103.45" y2="-65.4973" gradientUnits="userSpaceOnUse">
<stop stop-color="#844EFF"/>
<stop offset="1" stop-color="#88F8FF"/>
</linearGradient>
<linearGradient id="paint63_linear" x1="93.909" y1="20.4187" x2="97.4899" y2="-54.5722" gradientUnits="userSpaceOnUse">
<stop stop-color="#844EFF"/>
<stop offset="1" stop-color="#88F8FF"/>
</linearGradient>
<linearGradient id="paint64_linear" x1="98.7924" y1="31.8621" x2="92.9463" y2="-42.9863" gradientUnits="userSpaceOnUse">
<stop stop-color="#844EFF"/>
<stop offset="1" stop-color="#88F8FF"/>
</linearGradient>
<linearGradient id="paint65_linear" x1="105.071" y1="42.6031" x2="89.8901" y2="-30.9224" gradientUnits="userSpaceOnUse">
<stop stop-color="#844EFF"/>
<stop offset="1" stop-color="#88F8FF"/>
</linearGradient>
<linearGradient id="paint66_linear" x1="112.647" y1="52.4725" x2="88.3706" y2="-18.5705" gradientUnits="userSpaceOnUse">
<stop stop-color="#844EFF"/>
<stop offset="1" stop-color="#88F8FF"/>
</linearGradient>
<linearGradient id="paint67_linear" x1="121.4" y1="61.3144" x2="88.4113" y2="-6.12578" gradientUnits="userSpaceOnUse">
<stop stop-color="#844EFF"/>
<stop offset="1" stop-color="#88F8FF"/>
</linearGradient>
<linearGradient id="paint68_linear" x1="131.193" y1="68.9897" x2="90.0112" y2="6.21596" gradientUnits="userSpaceOnUse">
<stop stop-color="#844EFF"/>
<stop offset="1" stop-color="#88F8FF"/>
</linearGradient>
<linearGradient id="paint69_linear" x1="141.87" y1="75.3772" x2="93.1456" y2="18.2599" gradientUnits="userSpaceOnUse">
<stop stop-color="#844EFF"/>
<stop offset="1" stop-color="#88F8FF"/>
</linearGradient>
<linearGradient id="paint70_linear" x1="153.264" y1="80.3759" x2="97.7649" y2="29.8158" gradientUnits="userSpaceOnUse">
<stop stop-color="#844EFF"/>
<stop offset="1" stop-color="#88F8FF"/>
</linearGradient>
<linearGradient id="paint71_linear" x1="165.193" y1="83.9075" x2="103.795" y2="40.7019" gradientUnits="userSpaceOnUse">
<stop stop-color="#844EFF"/>
<stop offset="1" stop-color="#88F8FF"/>
</linearGradient>
<linearGradient id="paint72_linear" x1="177.472" y1="85.9158" x2="111.143" y2="50.7462" gradientUnits="userSpaceOnUse">
<stop stop-color="#844EFF"/>
<stop offset="1" stop-color="#88F8FF"/>
</linearGradient>
<linearGradient id="paint73_linear" x1="189.906" y1="86.3695" x2="119.692" y2="59.7903" gradientUnits="userSpaceOnUse">
<stop stop-color="#844EFF"/>
<stop offset="1" stop-color="#88F8FF"/>
</linearGradient>
<linearGradient id="paint74_linear" x1="202.297" y1="85.2613" x2="129.306" y2="67.6919" gradientUnits="userSpaceOnUse">
<stop stop-color="#844EFF"/>
<stop offset="1" stop-color="#88F8FF"/>
</linearGradient>
<linearGradient id="paint75_linear" x1="214.454" y1="82.6086" x2="139.836" y2="74.3261" gradientUnits="userSpaceOnUse">
<stop stop-color="#844EFF"/>
<stop offset="1" stop-color="#88F8FF"/>
</linearGradient>
<linearGradient id="paint76_linear" x1="226.181" y1="78.4534" x2="151.113" y2="79.5883" gradientUnits="userSpaceOnUse">
<stop stop-color="#844EFF"/>
<stop offset="1" stop-color="#88F8FF"/>
</linearGradient>
<linearGradient id="paint77_linear" x1="237.295" y1="72.861" x2="162.961" y2="83.3954" gradientUnits="userSpaceOnUse">
<stop stop-color="#844EFF"/>
<stop offset="1" stop-color="#88F8FF"/>
</linearGradient>
<linearGradient id="paint78_linear" x1="247.62" y1="65.9198" x2="175.193" y2="85.6875" gradientUnits="userSpaceOnUse">
<stop stop-color="#844EFF"/>
<stop offset="1" stop-color="#88F8FF"/>
</linearGradient>
<linearGradient id="paint79_linear" x1="256.995" y1="57.7391" x2="187.616" y2="86.4285" gradientUnits="userSpaceOnUse">
<stop stop-color="#844EFF"/>
<stop offset="1" stop-color="#88F8FF"/>
</linearGradient>
<linearGradient id="paint80_linear" x1="265.27" y1="48.4481" x2="200.035" y2="85.6067" gradientUnits="userSpaceOnUse">
<stop stop-color="#844EFF"/>
<stop offset="1" stop-color="#88F8FF"/>
</linearGradient>
<linearGradient id="paint81_linear" x1="272.315" y1="38.1933" x2="212.251" y2="83.2351" gradientUnits="userSpaceOnUse">
<stop stop-color="#844EFF"/>
<stop offset="1" stop-color="#88F8FF"/>
</linearGradient>
<linearGradient id="paint82_linear" x1="278.019" y1="27.1362" x2="224.074" y2="79.3509" gradientUnits="userSpaceOnUse">
<stop stop-color="#844EFF"/>
<stop offset="1" stop-color="#88F8FF"/>
</linearGradient>
<linearGradient id="paint83_linear" x1="282.292" y1="15.4514" x2="235.317" y2="74.0155" gradientUnits="userSpaceOnUse">
<stop stop-color="#844EFF"/>
<stop offset="1" stop-color="#88F8FF"/>
</linearGradient>
<linearGradient id="paint84_linear" x1="285.068" y1="3.32312" x2="245.803" y2="67.313" gradientUnits="userSpaceOnUse">
<stop stop-color="#844EFF"/>
<stop offset="1" stop-color="#88F8FF"/>
</linearGradient>
<linearGradient id="paint85_linear" x1="286.301" y1="-9.05742" x2="255.366" y2="59.3491" gradientUnits="userSpaceOnUse">
<stop stop-color="#844EFF"/>
<stop offset="1" stop-color="#88F8FF"/>
</linearGradient>
<linearGradient id="paint86_linear" x1="285.974" y1="-21.4949" x2="263.856" y2="50.2495" gradientUnits="userSpaceOnUse">
<stop stop-color="#844EFF"/>
<stop offset="1" stop-color="#88F8FF"/>
</linearGradient>
<linearGradient id="paint87_linear" x1="284.09" y1="-33.7931" x2="271.139" y2="40.1576" gradientUnits="userSpaceOnUse">
<stop stop-color="#844EFF"/>
<stop offset="1" stop-color="#88F8FF"/>
</linearGradient>
<linearGradient id="paint88_linear" x1="280.678" y1="-45.7583" x2="277.098" y2="29.2326" gradientUnits="userSpaceOnUse">
<stop stop-color="#844EFF"/>
<stop offset="1" stop-color="#88F8FF"/>
</linearGradient>
<linearGradient id="paint89_linear" x1="275.796" y1="-57.2016" x2="281.642" y2="17.6468" gradientUnits="userSpaceOnUse">
<stop stop-color="#844EFF"/>
<stop offset="1" stop-color="#88F8FF"/>
</linearGradient>
<linearGradient id="paint90_linear" x1="269.516" y1="-67.9426" x2="284.697" y2="5.58283" gradientUnits="userSpaceOnUse">
<stop stop-color="#844EFF"/>
<stop offset="1" stop-color="#88F8FF"/>
</linearGradient>
<linearGradient id="paint91_linear" x1="261.94" y1="-77.8121" x2="286.216" y2="-6.76907" gradientUnits="userSpaceOnUse">
<stop stop-color="#844EFF"/>
<stop offset="1" stop-color="#88F8FF"/>
</linearGradient>
<linearGradient id="paint92_linear" x1="253.187" y1="-86.6542" x2="286.176" y2="-19.214" gradientUnits="userSpaceOnUse">
<stop stop-color="#844EFF"/>
<stop offset="1" stop-color="#88F8FF"/>
</linearGradient>
<linearGradient id="paint93_linear" x1="243.395" y1="-94.3293" x2="284.577" y2="-31.5556" gradientUnits="userSpaceOnUse">
<stop stop-color="#844EFF"/>
<stop offset="1" stop-color="#88F8FF"/>
</linearGradient>
<linearGradient id="paint94_linear" x1="232.718" y1="-100.717" x2="281.442" y2="-43.5995" gradientUnits="userSpaceOnUse">
<stop stop-color="#844EFF"/>
<stop offset="1" stop-color="#88F8FF"/>
</linearGradient>
<linearGradient id="paint95_linear" x1="221.325" y1="-105.716" x2="276.824" y2="-55.1554" gradientUnits="userSpaceOnUse">
<stop stop-color="#844EFF"/>
<stop offset="1" stop-color="#88F8FF"/>
</linearGradient>
<linearGradient id="paint96_linear" x1="209.395" y1="-109.247" x2="270.793" y2="-66.0414" gradientUnits="userSpaceOnUse">
<stop stop-color="#844EFF"/>
<stop offset="1" stop-color="#88F8FF"/>
</linearGradient>
<linearGradient id="paint97_linear" x1="197.116" y1="-111.256" x2="263.445" y2="-76.0858" gradientUnits="userSpaceOnUse">
<stop stop-color="#844EFF"/>
<stop offset="1" stop-color="#88F8FF"/>
</linearGradient>
<linearGradient id="paint98_linear" x1="184.683" y1="-111.709" x2="254.897" y2="-85.1301" gradientUnits="userSpaceOnUse">
<stop stop-color="#844EFF"/>
<stop offset="1" stop-color="#88F8FF"/>
</linearGradient>
<linearGradient id="paint99_linear" x1="172.29" y1="-110.601" x2="245.282" y2="-93.0315" gradientUnits="userSpaceOnUse">
<stop stop-color="#844EFF"/>
<stop offset="1" stop-color="#88F8FF"/>
</linearGradient>
<linearGradient id="paint100_linear" x1="160.135" y1="-107.948" x2="234.753" y2="-99.6657" gradientUnits="userSpaceOnUse">
<stop stop-color="#844EFF"/>
<stop offset="1" stop-color="#88F8FF"/>
</linearGradient>
</defs>
</svg>
